<svg width="500" height="500" viewBox="0 0 500 500" xmlns="http://www.w3.org/2000/svg">
  <!-- Background gradient -->
  <defs>
    <radialGradient id="blackholeGradient" cx="50%" cy="50%" r="50%" fx="50%" fy="50%">
      <stop offset="0%" stop-color="#000000" />
      <stop offset="45%" stop-color="#050816" />
      <stop offset="65%" stop-color="#1e1b4b" />
      <stop offset="85%" stop-color="#4c1d95" />
      <stop offset="100%" stop-color="#6366f1" />
    </radialGradient>
    
    <!-- Accretion disk glow -->
    <filter id="glow" x="-50%" y="-50%" width="200%" height="200%">
      <feGaussianBlur stdDeviation="8" result="blur" />
      <feComposite in="SourceGraphic" in2="blur" operator="over" />
    </filter>
  </defs>
  
  <!-- Space background -->
  <rect width="100%" height="100%" fill="#050816" />
  
  <!-- Stars -->
  <g id="stars">
    <circle cx="120" cy="60" r="1" fill="white" opacity="0.8" />
    <circle cx="420" cy="150" r="1.5" fill="white" opacity="0.6" />
    <circle cx="380" cy="350" r="1" fill="white" opacity="0.7" />
    <circle cx="150" cy="420" r="1.2" fill="white" opacity="0.8" />
    <circle cx="230" cy="80" r="1" fill="white" opacity="0.6" />
    <circle cx="320" cy="180" r="1.3" fill="white" opacity="0.7" />
    <circle cx="80" cy="280" r="1" fill="white" opacity="0.8" />
    <circle cx="390" cy="90" r="1.1" fill="white" opacity="0.6" />
    <!-- More stars scattered around -->
    <circle cx="75" cy="125" r="1" fill="white" opacity="0.7" />
    <circle cx="430" cy="305" r="1.2" fill="white" opacity="0.8" />
    <circle cx="320" cy="410" r="1" fill="white" opacity="0.7" />
    <circle cx="190" cy="100" r="1.3" fill="white" opacity="0.6" />
    <circle cx="290" cy="240" r="1" fill="white" opacity="0.8" />
    <circle cx="150" cy="330" r="1.1" fill="white" opacity="0.7" />
    <circle cx="350" cy="75" r="1" fill="white" opacity="0.6" />
    <circle cx="75" cy="390" r="1.2" fill="white" opacity="0.7" />
  </g>
  
  <!-- Accretion disk (outer glow) -->
  <ellipse cx="250" cy="250" rx="130" ry="40" fill="#6366f1" opacity="0.2" filter="url(#glow)" transform="rotate(35, 250, 250)" />
  
  <!-- Accretion disk (inner ring) -->
  <ellipse cx="250" cy="250" rx="110" ry="30" fill="#4c1d95" opacity="0.4" transform="rotate(35, 250, 250)" />
  
  <!-- Black hole event horizon -->
  <circle cx="250" cy="250" r="70" fill="url(#blackholeGradient)" />
  
  <!-- Inner black hole (darkest part) -->
  <circle cx="250" cy="250" r="45" fill="#000000" />
  
  <!-- Light distortion effect -->
  <g opacity="0.6">
    <path d="M250,180 C290,200 310,230 320,250 C310,270 290,300 250,320" stroke="#6366f1" stroke-width="1.5" fill="none" opacity="0.5" />
    <path d="M250,180 C210,200 190,230 180,250 C190,270 210,300 250,320" stroke="#6366f1" stroke-width="1.5" fill="none" opacity="0.5" />
  </g>
</svg>
