<svg viewBox="0 0 1024 1024" xmlns="http://www.w3.org/2000/svg">
  <clipPath id="box">
    <path d="M0 0h1024v1024H0z" />
  </clipPath>
  <defs>
    <pattern id="hlines" width="1" height="30" patternUnits="userSpaceOnUse">
      <!-- <circle r="32"/> -->
      <path d="m0 14h1v2H0" fill="#fff" />
    </pattern>

    <pattern id="vlines" width="1" height="30" patternUnits="userSpaceOnUse">
      <path d="m0 14h1v2H0" fill="#fff" />


    </pattern>

    <filter id="chaotic">
      <feTurbulence type="fractalNoise" baseFrequency=".009 .009" numOctaves="12" />
      <feDisplacementMap in="SourceGraphic" scale="50" result="disp" />
    </filter>
    <radialGradient id="rings" spreadMethod="repeat" r="17" gradientUnits="userSpaceOnUse">
      <stop offset="0" stop-color="white" />
      <stop offset=".2" stop-color="#ffffff00" />
    </radialGradient>
    <linearGradient id="cloudGradient" gradientTransform="rotate(20)">
      <stop stop-opacity=".1" offset="67%" />
      <stop stop-opacity=".3" offset="75%" />
      <stop stop-opacity=".1" offset="85%" />
    </linearGradient>
    <filter id="clouds" x="-50%" y="-50%" height="200%" width="200%">
      <feGaussianBlur in="sky" stdDeviation="20" result="skyblur" />
      <feTurbulence type="fractalNoise" baseFrequency=".01" numOctaves="5" result="skynoise" seed="4426" />
      <feColorMatrix values="1 0 0 0 0 1 0 0 0 0 1 0 0 0 0 3 -1 -1 0 0" />
      <feComposite operator="in" in2="SourceGraphic" />
    </filter>
    <radialGradient id="dope">
      <stop stop-color="hsl(347, 0%, 0%)" offset="00%" />
      <stop stop-color="hsl(347, 56%, 41%)" offset="70%" />
      <stop stop-color="hsl(347, 56%, 53%)" offset="90%" />
      <stop stop-color="hsl(347, 56%, 63%)" offset="95%" />
      <stop stop-color="hsl(347, 56%, 83%)" offset="100%" />
    </radialGradient>
    <filter id="stars">
      <feTurbulence baseFrequency=".2" seed="4426" />
      <feColorMatrix values="0 0 0 9 -4 0 0 0 9 -4 0 0 0 9 -4 0 0 0 0 1" />
    </filter>



    <filter id="filter">
      <feTurbulence type="fractalNoise" baseFrequency=".02" numOctaves="4" />
      <feDisplacementMap in="SourceGraphic" xChannelSelector="G" scale="50" result="r" />
      <feMorphology operator="dilate" radius="2" />
      <feGaussianBlur stdDeviation="5" />
      <feBlend in2="r" />
    </filter>


    <filter id="light" primitiveUnits="objectBoundingBox">
      <feTurbulence type="fractalNoise" baseFrequency="0.015" />
      <!-- <feTurbulence type="turbulence" baseFrequency="0.01"/> -->
      <feSpecularLighting specularConstant="50" specularExponent="100" surfaceScale="1"
        lighting-color="hsl(0deg 00% 60%)">
        <!-- lighting-color="hsl(30deg 70% 50%)" > -->
        <fePointLight x=".5" y=".5" z=".33" />
      </feSpecularLighting>
      <feBlend in2="SourceGraphic" />
    </filter>


  </defs>
  <svg viewBox="0 0 1024 1024" clip-path="url(#box)">
    <rect width="100%" height="100%" fill="black" />

    <rect width="100%" height="100%" filter="url(#stars)" opacity="0.5" />
    <rect width="100%" height="100%" filter="url(#clouds)" fill="url(#cloudGradient)" opacity="1" />

    <!-- <circle cx="512" cy="512" r="420" fill="url(#rings)" filter="url(#chaotic)" /> -->

    <!-- <path d="m90 512a1 1 0 01840 3 1 1 0 01-840-4m180 0 a1 1 0 00480 3 1 1 0 00-480-4" fill="url(#rings)" filter="url(#chaotic)" /> -->

    <!-- <circle cx="50%" cy="50%" r="56%" fill="none" stroke-width="100%" stroke="#96f" stroke-dasharray=".2% 15%" filter="url(#filter)"/> -->


    <mask id="myMask">
      <!-- Everything under a white pixel will be visible -->
      <rect x="0" y="0" width="100" height="100" fill="white" />

      <!-- Everything under a black pixel will be invisible -->
      <path d="M10,35 A20,20,0,0,1,50,35 A20,20,0,0,1,90,35 Q90,65,50,95 Q10,65,10,35 Z" fill="black" />
    </mask>








    <!-- <path d="m90 512a1 1 0 01840 3 1 1 0 01-840-4m180 0 a1 1 0 00480 3 1 1 0 00-480-4"
 fill="url(#rings)" filter="url(#chaotic)" 
        transform="rotate(-10 50 100)
               translate(-290 350)
               skewX(0)
               skewY(40)
               scale(1 0.5)"
 /> -->

    <!-- <path d="m90 512a1 1 0 01840 3 1 1 0 01-840-4m180 0 a1 1 0 00480 3 1 1 0 00-480-4"
 fill="url(#rings)" filter="url(#chaotic)" 
      
 /> -->





    <!-- <rect y="406" width="100%" height="200" fill="url(#hlines)" filter="url(#chaotic)" /> -->
    <!-- <rect x="322" width="380" height="100%" fill="url(#vlines)" filter="url(#chaotic)" /> -->

    <!-- <rect x="322" width="380" height="100%" fill="url(#rings)" filter="url(#chaotic)" /> -->

    <circle cx="512" cy="512" r="300" fill="none" filter="url(#light)" />
    <circle cx="512" cy="512" r="100" fill="url(#dope)"  />

    <!-- <circle cx="0" cy="512" r="220" fill="none" stroke="white" stroke-width="15" stroke-dasharray=" 0 200 0" /> -->
    <!-- <circle cx="0" cy="512" r="240" fill="none" stroke="white" stroke-width="15" stroke-dasharray=" 120 0 0" /> -->

    <!-- <circle cx="512" cy="512" r="20" fill="url(#dope)" /> -->
    <!-- <circle cx="512" cy="512" r="20" fill="url(#dope)" /> -->
    <!-- <circle cx="512" cy="512" r="20" fill="url(#dope)" /> -->
<!-- <svg viewBox="-50 -50 100 100" > -->

  <!-- <circle cx="512" cy="512" r="200" fill="none" stroke="white" stroke-width="10"  /> -->

    <ellipse cx="512" cy="512" rx="400" ry="250" fill="none" stroke="white" stroke-width="2" transform="rotate(40, 512, 512)" />
    <ellipse cx="512" cy="512" rx="425" ry="275" fill="none" stroke="white" stroke-width="1" transform="rotate(20, 512, 512)" />
    <ellipse cx="512" cy="512" rx="750" ry="300" fill="none" stroke="white" stroke-width="2" transform="rotate(120, 500, 500)" />
    <ellipse cx="512" cy="512" rx="750" ry="300" fill="none" stroke="white" stroke-width="2" transform="rotate(120, 500, 500)" />
    <ellipse cx="512" cy="512" rx="750" ry="300" fill="none" stroke="white" stroke-width="2" transform="rotate(120, 500, 500)" />
    <ellipse cx="512" cy="512" rx="750" ry="300" fill="none" stroke="white" stroke-width="2" transform="rotate(120, 500, 500)" />
    <ellipse cx="512" cy="512" rx="750" ry="300" fill="none" stroke="white" stroke-width="2" transform="rotate(120, 500, 500)" />




<!-- </svg> -->
    <!-- <ellipse cx="512" cy="512" rx="650" ry="300" fill="none" stroke="white" stroke-width="1" /> -->
    <!-- <ellipse cx="512" cy="512" rx="650" ry="350" fill="none" stroke="white" stroke-width="1" /> -->
    <!-- <ellipse cx="512" cy="512" rx="650" ry="400" fill="none" stroke="white" stroke-width="1" /> -->
    <!-- <ellipse cx="512" cy="512" rx="650" ry="450" fill="none" stroke="white" stroke-width="1" /> -->
    <!-- <ellipse cx="512" cy="512" rx="650" ry="500" fill="none" stroke="white" stroke-width="1" /> -->
    <!-- <ellipse cx="512" cy="512" rx="650" ry="550" fill="none" stroke="white" stroke-width="1" /> -->
    <!-- <ellipse cx="512" cy="512" rx="650" ry="600" fill="none" stroke="white" stroke-width="1" /> -->

<!-- 
    <ellipse cx="512" cy="512" rx="650" ry="250" fill="none" stroke="white" stroke-width="1" />
    <ellipse cx="512" cy="512" rx="600" ry="250" fill="none" stroke="white" stroke-width="1" />
    <ellipse cx="512" cy="512" rx="550" ry="250" fill="none" stroke="white" stroke-width="1" />
    <ellipse cx="512" cy="512" rx="500" ry="250" fill="none" stroke="white" stroke-width="1" />
    <ellipse cx="512" cy="512" rx="450" ry="250" fill="none" stroke="white" stroke-width="1" />
    <ellipse cx="512" cy="512" rx="400" ry="250" fill="none" stroke="white" stroke-width="1" />
    <ellipse cx="512" cy="512" rx="350" ry="250" fill="none" stroke="white" stroke-width="1" />
    <ellipse cx="512" cy="512" rx="300" ry="250" fill="none" stroke="white" stroke-width="1" /> -->

    <!-- <path d="m90 512a1 1 0 01840 3 1 1 0 01-840-4m180 0 a1 1 0 00480 3 1 1 0 00-480-4"
 fill="url(#rings)" filter="url(#chaotic)" 
        transform="rotate(-10 50 100)
               translate(-290 300)
               skewX(40)
               skewY(0)
               scale(1 0.5)" 
               /> -->



  </svg>
</svg>