<svg viewBox="0 0 512 512" xmlns="http://www.w3.org/2000/svg">
    <clipPath id="box">
        <path d="M0 0h512v512H0z" />
    </clipPath>
    <defs></defs><svg viewBox="0 0 512 512" clip-path="url(#box)">
        <path fill="black" d="M0 0h512v512H0z" />
        <g>
            <path fill="#2f2f2f" d="M0 0h512v512H0z" />
            <path fill="#b9b8b8" d="M12 12q-24 160 0 374 232 24 488 0 24-160 0-374-232-24-488 0" />
            <path fill="#575757" d="M24 24Q0 184 24 374q232 24 464 0 24-160 0-350Q256 0 24 24m0 396h469l41 130H-26z" />
        </g>
        <g id="edges" stroke="hsl(126, 100%, 50%)">
            <path
                d="m88 230 38-50m-38 50 38 50m62-100 38-50m-38 50 38 50m-38-50 38 150m-38-50 38-150m-38 150 38-50m-38 50 38 50m62-200 38 50m-38-50 38 150m-38-50 38-50m-38 50 38 50m-38 50 38-150m-38 150 38-50m62-100 38 50m-38 50 38-50"
                stroke-width="5" fill="none" stroke-linecap="round" />

        </g>
        <g id="stations" stroke="hsl(126, 100%, 50%)" stroke-dasharray=" 0 5 0" stroke-width="2">
            <path
                d="M32 206h48v48H32zm100-50h48v48h-48zm0 100h48v48h-48zM232 106h48v48h-48zm0 100h48v48h-48zm0 100h48v48h-48zm100-150h48v48h-48zm0 100h48v48h-48zm100-50h48v48h-48z" />

            <!-- <animate attributeName="cx" from="0" to="500" dur="5s" repeatCount="indefinite" /> -->
        </g>
        <g fill="hsl(126, 100%, 50%)">
            <rect x="50"  y="40" width="10" height="10" />
            <rect x="70"  y="60" width="10" height="10" />
            <rect x="90"  y="40" width="10" height="10" />
            <rect x="110" y="60" width="10" height="10" />
            <rect x="130" y="40" width="10" height="10" />
            <rect x="150" y="60" width="10" height="10" />
            <rect x="170" y="40" width="10" height="10" />
            <rect x="190" y="60" width="10" height="10" />
            <rect x="210" y="40" width="10" height="10" />
            <rect x="230" y="60" width="10" height="10" />

        </g>

        <!-- <g fill="hsl(126, 100%, 50%)">
            <circle r="12" cx="25" cy="20">
                <animateMotion dur="10s" repeatCount="indefinite"
                    path="m88 180 38-50m-38 50 38 50m62-100 38-50m-38 50 38 50m-38-50 38 150m-38-50 38-150m-38 150 38-50m-38 50 38 50m62-200 38 50m-38-50 38 150m-38-50 38-50m-38 50 38 50m-38 50 38-150m-38 150 38-50m62-100 38 50m-38 50 38-50" />
            </circle>
        </g> -->
    </svg>
</svg>