<svg xmlns="http://www.w3.org/2000/svg" version="1.1" xmlns:xlink="http://www.w3.org/1999/xlink" xmlns:svgjs="http://svgjs.dev/svgjs" viewBox="0 0 325 100"><defs><linearGradient x1="50%" y1="0%" x2="50%" y2="100%" id="ssspill-grad"><stop stop-color="hsl(37, 99%, 67%)" stop-opacity="1" offset="45%"></stop><stop stop-color="hsl(316, 73%, 52%)" stop-opacity="1" offset="100%"></stop></linearGradient></defs><rect width="100%" height="100%" fill="hsl(292, 100%, 22%)"></rect><g fill="url(#ssspill-grad)">
    <rect width="100%" height="40" fill="hsl(37, 99%, 67%)"></rect>

    <rect x="0" width="7.69%" height="57.07852951455451" rx="15"></rect>
      <rect x="50" width="7.69%" height="71.9062671665712" rx="15"></rect>
      <rect x="100" width="7.69%" height="80.44296160222737" rx="15"></rect>
      <rect x="150" width="7.69%" height="75.61250974347226" rx="15"></rect>
      <rect x="200" width="7.69%" height="61.584475968451606" rx="15"></rect>
      <rect x="250" width="7.69%" height="95.66194927437871" rx="15"></rect>
      <rect x="300" width="7.69%" height="83.39270874456012" rx="15"></rect>
  </g><g fill="hsl(292, 100%, 22%)">
    <rect x="25" y="2.799256382992338" width="7.69%" height="60" rx="15"></rect>
      <rect x="75" y="21.56105082063822" width="7.69%" height="60" rx="15"></rect>
      <rect x="125" y="16.19854527899109" width="7.69%" height="60" rx="15"></rect>
      <rect x="175" y="6.393560929375125" width="7.69%" height="60" rx="15"></rect>
      <rect x="225" y="22.807281192892965" width="7.69%" height="60" rx="15"></rect>
      <rect x="275" y="26.761508496724346" width="7.69%" height="60" rx="15"></rect>
  </g></svg>