<svg xmlns="http://www.w3.org/2000/svg" version="1.1" xmlns:xlink="http://www.w3.org/1999/xlink"
    xmlns:svgjs="http://svgjs.dev/svgjs" viewBox="0 0 800 800" opacity="1">
    <defs>
        <linearGradient gradientTransform="rotate(270)" x1="50%" y1="0%" x2="50%" y2="100%" id="sssquiggly-grad">
            <stop stop-color="hsl(206, 75%, 49%)" stop-opacity="1" offset="0%"></stop>
            <stop stop-color="hsl(331, 90%, 56%)" stop-opacity="1" offset="100%"></stop>
        </linearGradient>
    </defs>
    <g stroke-width="2" stroke="url(#sssquiggly-grad)" fill="none" stroke-linecap="round"
        transform="matrix(1,0,0,1,0,288.413537979126)">
        <path
            d="M10,10C21.805555555555557,16.458333333333336,40.97222222222223,49.333333333333336,66.66666666666667,41C92.36111111111111,32.666666666666664,105.55555555555557,-29.583333333333332,133.33333333333334,-30C161.11111111111111,-30.416666666666668,172.22222222222223,35.666666666666664,200,39C227.77777777777777,42.333333333333336,238.8888888888889,-17.541666666666668,266.6666666666667,-14C294.44444444444446,-10.458333333333332,305.5555555555556,57.875,333.33333333333337,56C361.11111111111114,54.125,372.22222222222223,-23.416666666666668,400,-23C427.77777777777777,-22.583333333333332,438.8888888888889,56.541666666666664,466.6666666666667,58C494.44444444444446,59.458333333333336,505.5555555555556,-14.958333333333334,533.3333333333334,-16C561.1111111111111,-17.041666666666668,572.2222222222222,50.916666666666664,600,53C627.7777777777778,55.083333333333336,638.8888888888889,-8.083333333333334,666.6666666666667,-6C694.4444444444446,-3.9166666666666665,707.6388888888889,59.666666666666664,733.3333333333334,63C759.0277777777778,66.33333333333333,778.1944444444445,21.041666666666668,790,10">
        </path>
        <path
            d="M10,10C21.805555555555557,16.458333333333336,40.97222222222223,49.333333333333336,66.66666666666667,41C92.36111111111111,32.666666666666664,105.55555555555557,-29.583333333333332,133.33333333333334,-30C161.11111111111111,-30.416666666666668,172.22222222222223,35.666666666666664,200,39C227.77777777777777,42.333333333333336,238.8888888888889,-17.541666666666668,266.6666666666667,-14C294.44444444444446,-10.458333333333332,305.5555555555556,57.875,333.33333333333337,56C361.11111111111114,54.125,372.22222222222223,-23.416666666666668,400,-23C427.77777777777777,-22.583333333333332,438.8888888888889,56.541666666666664,466.6666666666667,58C494.44444444444446,59.458333333333336,505.5555555555556,-14.958333333333334,533.3333333333334,-16C561.1111111111111,-17.041666666666668,572.2222222222222,50.916666666666664,600,53C627.7777777777778,55.083333333333336,638.8888888888889,-8.083333333333334,666.6666666666667,-6C694.4444444444446,-3.9166666666666665,707.6388888888889,59.666666666666664,733.3333333333334,63C759.0277777777778,66.33333333333333,778.1944444444445,21.041666666666668,790,10"
            transform="matrix(1,0,0,1,0,190)"></path>
        <path
            d="M10,10C21.805555555555557,16.458333333333336,40.97222222222223,49.333333333333336,66.66666666666667,41C92.36111111111111,32.666666666666664,105.55555555555557,-29.583333333333332,133.33333333333334,-30C161.11111111111111,-30.416666666666668,172.22222222222223,35.666666666666664,200,39C227.77777777777777,42.333333333333336,238.8888888888889,-17.541666666666668,266.6666666666667,-14C294.44444444444446,-10.458333333333332,305.5555555555556,57.875,333.33333333333337,56C361.11111111111114,54.125,372.22222222222223,-23.416666666666668,400,-23C427.77777777777777,-22.583333333333332,438.8888888888889,56.541666666666664,466.6666666666667,58C494.44444444444446,59.458333333333336,505.5555555555556,-14.958333333333334,533.3333333333334,-16C561.1111111111111,-17.041666666666668,572.2222222222222,50.916666666666664,600,53C627.7777777777778,55.083333333333336,638.8888888888889,-8.083333333333334,666.6666666666667,-6C694.4444444444446,-3.9166666666666665,707.6388888888889,59.666666666666664,733.3333333333334,63C759.0277777777778,66.33333333333333,778.1944444444445,21.041666666666668,790,10"
            transform="matrix(1,0,0,1,0,180)"></path>
        <path
            d="M10,10C21.805555555555557,16.458333333333336,40.97222222222223,49.333333333333336,66.66666666666667,41C92.36111111111111,32.666666666666664,105.55555555555557,-29.583333333333332,133.33333333333334,-30C161.11111111111111,-30.416666666666668,172.22222222222223,35.666666666666664,200,39C227.77777777777777,42.333333333333336,238.8888888888889,-17.541666666666668,266.6666666666667,-14C294.44444444444446,-10.458333333333332,305.5555555555556,57.875,333.33333333333337,56C361.11111111111114,54.125,372.22222222222223,-23.416666666666668,400,-23C427.77777777777777,-22.583333333333332,438.8888888888889,56.541666666666664,466.6666666666667,58C494.44444444444446,59.458333333333336,505.5555555555556,-14.958333333333334,533.3333333333334,-16C561.1111111111111,-17.041666666666668,572.2222222222222,50.916666666666664,600,53C627.7777777777778,55.083333333333336,638.8888888888889,-8.083333333333334,666.6666666666667,-6C694.4444444444446,-3.9166666666666665,707.6388888888889,59.666666666666664,733.3333333333334,63C759.0277777777778,66.33333333333333,778.1944444444445,21.041666666666668,790,10"
            transform="matrix(1,0,0,1,0,170)"></path>
        <path
            d="M10,10C21.805555555555557,16.458333333333336,40.97222222222223,49.333333333333336,66.66666666666667,41C92.36111111111111,32.666666666666664,105.55555555555557,-29.583333333333332,133.33333333333334,-30C161.11111111111111,-30.416666666666668,172.22222222222223,35.666666666666664,200,39C227.77777777777777,42.333333333333336,238.8888888888889,-17.541666666666668,266.6666666666667,-14C294.44444444444446,-10.458333333333332,305.5555555555556,57.875,333.33333333333337,56C361.11111111111114,54.125,372.22222222222223,-23.416666666666668,400,-23C427.77777777777777,-22.583333333333332,438.8888888888889,56.541666666666664,466.6666666666667,58C494.44444444444446,59.458333333333336,505.5555555555556,-14.958333333333334,533.3333333333334,-16C561.1111111111111,-17.041666666666668,572.2222222222222,50.916666666666664,600,53C627.7777777777778,55.083333333333336,638.8888888888889,-8.083333333333334,666.6666666666667,-6C694.4444444444446,-3.9166666666666665,707.6388888888889,59.666666666666664,733.3333333333334,63C759.0277777777778,66.33333333333333,778.1944444444445,21.041666666666668,790,10"
            transform="matrix(1,0,0,1,0,160)"></path>
        <path
            d="M10,10C21.805555555555557,16.458333333333336,40.97222222222223,49.333333333333336,66.66666666666667,41C92.36111111111111,32.666666666666664,105.55555555555557,-29.583333333333332,133.33333333333334,-30C161.11111111111111,-30.416666666666668,172.22222222222223,35.666666666666664,200,39C227.77777777777777,42.333333333333336,238.8888888888889,-17.541666666666668,266.6666666666667,-14C294.44444444444446,-10.458333333333332,305.5555555555556,57.875,333.33333333333337,56C361.11111111111114,54.125,372.22222222222223,-23.416666666666668,400,-23C427.77777777777777,-22.583333333333332,438.8888888888889,56.541666666666664,466.6666666666667,58C494.44444444444446,59.458333333333336,505.5555555555556,-14.958333333333334,533.3333333333334,-16C561.1111111111111,-17.041666666666668,572.2222222222222,50.916666666666664,600,53C627.7777777777778,55.083333333333336,638.8888888888889,-8.083333333333334,666.6666666666667,-6C694.4444444444446,-3.9166666666666665,707.6388888888889,59.666666666666664,733.3333333333334,63C759.0277777777778,66.33333333333333,778.1944444444445,21.041666666666668,790,10"
            transform="matrix(1,0,0,1,0,150)"></path>
        <path
            d="M10,10C21.805555555555557,16.458333333333336,40.97222222222223,49.333333333333336,66.66666666666667,41C92.36111111111111,32.666666666666664,105.55555555555557,-29.583333333333332,133.33333333333334,-30C161.11111111111111,-30.416666666666668,172.22222222222223,35.666666666666664,200,39C227.77777777777777,42.333333333333336,238.8888888888889,-17.541666666666668,266.6666666666667,-14C294.44444444444446,-10.458333333333332,305.5555555555556,57.875,333.33333333333337,56C361.11111111111114,54.125,372.22222222222223,-23.416666666666668,400,-23C427.77777777777777,-22.583333333333332,438.8888888888889,56.541666666666664,466.6666666666667,58C494.44444444444446,59.458333333333336,505.5555555555556,-14.958333333333334,533.3333333333334,-16C561.1111111111111,-17.041666666666668,572.2222222222222,50.916666666666664,600,53C627.7777777777778,55.083333333333336,638.8888888888889,-8.083333333333334,666.6666666666667,-6C694.4444444444446,-3.9166666666666665,707.6388888888889,59.666666666666664,733.3333333333334,63C759.0277777777778,66.33333333333333,778.1944444444445,21.041666666666668,790,10"
            transform="matrix(1,0,0,1,0,140)"></path>
        <path
            d="M10,10C21.805555555555557,16.458333333333336,40.97222222222223,49.333333333333336,66.66666666666667,41C92.36111111111111,32.666666666666664,105.55555555555557,-29.583333333333332,133.33333333333334,-30C161.11111111111111,-30.416666666666668,172.22222222222223,35.666666666666664,200,39C227.77777777777777,42.333333333333336,238.8888888888889,-17.541666666666668,266.6666666666667,-14C294.44444444444446,-10.458333333333332,305.5555555555556,57.875,333.33333333333337,56C361.11111111111114,54.125,372.22222222222223,-23.416666666666668,400,-23C427.77777777777777,-22.583333333333332,438.8888888888889,56.541666666666664,466.6666666666667,58C494.44444444444446,59.458333333333336,505.5555555555556,-14.958333333333334,533.3333333333334,-16C561.1111111111111,-17.041666666666668,572.2222222222222,50.916666666666664,600,53C627.7777777777778,55.083333333333336,638.8888888888889,-8.083333333333334,666.6666666666667,-6C694.4444444444446,-3.9166666666666665,707.6388888888889,59.666666666666664,733.3333333333334,63C759.0277777777778,66.33333333333333,778.1944444444445,21.041666666666668,790,10"
            transform="matrix(1,0,0,1,0,130)"></path>
        <path
            d="M10,10C21.805555555555557,16.458333333333336,40.97222222222223,49.333333333333336,66.66666666666667,41C92.36111111111111,32.666666666666664,105.55555555555557,-29.583333333333332,133.33333333333334,-30C161.11111111111111,-30.416666666666668,172.22222222222223,35.666666666666664,200,39C227.77777777777777,42.333333333333336,238.8888888888889,-17.541666666666668,266.6666666666667,-14C294.44444444444446,-10.458333333333332,305.5555555555556,57.875,333.33333333333337,56C361.11111111111114,54.125,372.22222222222223,-23.416666666666668,400,-23C427.77777777777777,-22.583333333333332,438.8888888888889,56.541666666666664,466.6666666666667,58C494.44444444444446,59.458333333333336,505.5555555555556,-14.958333333333334,533.3333333333334,-16C561.1111111111111,-17.041666666666668,572.2222222222222,50.916666666666664,600,53C627.7777777777778,55.083333333333336,638.8888888888889,-8.083333333333334,666.6666666666667,-6C694.4444444444446,-3.9166666666666665,707.6388888888889,59.666666666666664,733.3333333333334,63C759.0277777777778,66.33333333333333,778.1944444444445,21.041666666666668,790,10"
            transform="matrix(1,0,0,1,0,120)"></path>
        <path
            d="M10,10C21.805555555555557,16.458333333333336,40.97222222222223,49.333333333333336,66.66666666666667,41C92.36111111111111,32.666666666666664,105.55555555555557,-29.583333333333332,133.33333333333334,-30C161.11111111111111,-30.416666666666668,172.22222222222223,35.666666666666664,200,39C227.77777777777777,42.333333333333336,238.8888888888889,-17.541666666666668,266.6666666666667,-14C294.44444444444446,-10.458333333333332,305.5555555555556,57.875,333.33333333333337,56C361.11111111111114,54.125,372.22222222222223,-23.416666666666668,400,-23C427.77777777777777,-22.583333333333332,438.8888888888889,56.541666666666664,466.6666666666667,58C494.44444444444446,59.458333333333336,505.5555555555556,-14.958333333333334,533.3333333333334,-16C561.1111111111111,-17.041666666666668,572.2222222222222,50.916666666666664,600,53C627.7777777777778,55.083333333333336,638.8888888888889,-8.083333333333334,666.6666666666667,-6C694.4444444444446,-3.9166666666666665,707.6388888888889,59.666666666666664,733.3333333333334,63C759.0277777777778,66.33333333333333,778.1944444444445,21.041666666666668,790,10"
            transform="matrix(1,0,0,1,0,110)"></path>
        <path
            d="M10,10C21.805555555555557,16.458333333333336,40.97222222222223,49.333333333333336,66.66666666666667,41C92.36111111111111,32.666666666666664,105.55555555555557,-29.583333333333332,133.33333333333334,-30C161.11111111111111,-30.416666666666668,172.22222222222223,35.666666666666664,200,39C227.77777777777777,42.333333333333336,238.8888888888889,-17.541666666666668,266.6666666666667,-14C294.44444444444446,-10.458333333333332,305.5555555555556,57.875,333.33333333333337,56C361.11111111111114,54.125,372.22222222222223,-23.416666666666668,400,-23C427.77777777777777,-22.583333333333332,438.8888888888889,56.541666666666664,466.6666666666667,58C494.44444444444446,59.458333333333336,505.5555555555556,-14.958333333333334,533.3333333333334,-16C561.1111111111111,-17.041666666666668,572.2222222222222,50.916666666666664,600,53C627.7777777777778,55.083333333333336,638.8888888888889,-8.083333333333334,666.6666666666667,-6C694.4444444444446,-3.9166666666666665,707.6388888888889,59.666666666666664,733.3333333333334,63C759.0277777777778,66.33333333333333,778.1944444444445,21.041666666666668,790,10"
            transform="matrix(1,0,0,1,0,100)"></path>
        <path
            d="M10,10C21.805555555555557,16.458333333333336,40.97222222222223,49.333333333333336,66.66666666666667,41C92.36111111111111,32.666666666666664,105.55555555555557,-29.583333333333332,133.33333333333334,-30C161.11111111111111,-30.416666666666668,172.22222222222223,35.666666666666664,200,39C227.77777777777777,42.333333333333336,238.8888888888889,-17.541666666666668,266.6666666666667,-14C294.44444444444446,-10.458333333333332,305.5555555555556,57.875,333.33333333333337,56C361.11111111111114,54.125,372.22222222222223,-23.416666666666668,400,-23C427.77777777777777,-22.583333333333332,438.8888888888889,56.541666666666664,466.6666666666667,58C494.44444444444446,59.458333333333336,505.5555555555556,-14.958333333333334,533.3333333333334,-16C561.1111111111111,-17.041666666666668,572.2222222222222,50.916666666666664,600,53C627.7777777777778,55.083333333333336,638.8888888888889,-8.083333333333334,666.6666666666667,-6C694.4444444444446,-3.9166666666666665,707.6388888888889,59.666666666666664,733.3333333333334,63C759.0277777777778,66.33333333333333,778.1944444444445,21.041666666666668,790,10"
            transform="matrix(1,0,0,1,0,90)"></path>
        <path
            d="M10,10C21.805555555555557,16.458333333333336,40.97222222222223,49.333333333333336,66.66666666666667,41C92.36111111111111,32.666666666666664,105.55555555555557,-29.583333333333332,133.33333333333334,-30C161.11111111111111,-30.416666666666668,172.22222222222223,35.666666666666664,200,39C227.77777777777777,42.333333333333336,238.8888888888889,-17.541666666666668,266.6666666666667,-14C294.44444444444446,-10.458333333333332,305.5555555555556,57.875,333.33333333333337,56C361.11111111111114,54.125,372.22222222222223,-23.416666666666668,400,-23C427.77777777777777,-22.583333333333332,438.8888888888889,56.541666666666664,466.6666666666667,58C494.44444444444446,59.458333333333336,505.5555555555556,-14.958333333333334,533.3333333333334,-16C561.1111111111111,-17.041666666666668,572.2222222222222,50.916666666666664,600,53C627.7777777777778,55.083333333333336,638.8888888888889,-8.083333333333334,666.6666666666667,-6C694.4444444444446,-3.9166666666666665,707.6388888888889,59.666666666666664,733.3333333333334,63C759.0277777777778,66.33333333333333,778.1944444444445,21.041666666666668,790,10"
            transform="matrix(1,0,0,1,0,80)"></path>
        <path
            d="M10,10C21.805555555555557,16.458333333333336,40.97222222222223,49.333333333333336,66.66666666666667,41C92.36111111111111,32.666666666666664,105.55555555555557,-29.583333333333332,133.33333333333334,-30C161.11111111111111,-30.416666666666668,172.22222222222223,35.666666666666664,200,39C227.77777777777777,42.333333333333336,238.8888888888889,-17.541666666666668,266.6666666666667,-14C294.44444444444446,-10.458333333333332,305.5555555555556,57.875,333.33333333333337,56C361.11111111111114,54.125,372.22222222222223,-23.416666666666668,400,-23C427.77777777777777,-22.583333333333332,438.8888888888889,56.541666666666664,466.6666666666667,58C494.44444444444446,59.458333333333336,505.5555555555556,-14.958333333333334,533.3333333333334,-16C561.1111111111111,-17.041666666666668,572.2222222222222,50.916666666666664,600,53C627.7777777777778,55.083333333333336,638.8888888888889,-8.083333333333334,666.6666666666667,-6C694.4444444444446,-3.9166666666666665,707.6388888888889,59.666666666666664,733.3333333333334,63C759.0277777777778,66.33333333333333,778.1944444444445,21.041666666666668,790,10"
            transform="matrix(1,0,0,1,0,70)"></path>
        <path
            d="M10,10C21.805555555555557,16.458333333333336,40.97222222222223,49.333333333333336,66.66666666666667,41C92.36111111111111,32.666666666666664,105.55555555555557,-29.583333333333332,133.33333333333334,-30C161.11111111111111,-30.416666666666668,172.22222222222223,35.666666666666664,200,39C227.77777777777777,42.333333333333336,238.8888888888889,-17.541666666666668,266.6666666666667,-14C294.44444444444446,-10.458333333333332,305.5555555555556,57.875,333.33333333333337,56C361.11111111111114,54.125,372.22222222222223,-23.416666666666668,400,-23C427.77777777777777,-22.583333333333332,438.8888888888889,56.541666666666664,466.6666666666667,58C494.44444444444446,59.458333333333336,505.5555555555556,-14.958333333333334,533.3333333333334,-16C561.1111111111111,-17.041666666666668,572.2222222222222,50.916666666666664,600,53C627.7777777777778,55.083333333333336,638.8888888888889,-8.083333333333334,666.6666666666667,-6C694.4444444444446,-3.9166666666666665,707.6388888888889,59.666666666666664,733.3333333333334,63C759.0277777777778,66.33333333333333,778.1944444444445,21.041666666666668,790,10"
            transform="matrix(1,0,0,1,0,60)"></path>
        <path
            d="M10,10C21.805555555555557,16.458333333333336,40.97222222222223,49.333333333333336,66.66666666666667,41C92.36111111111111,32.666666666666664,105.55555555555557,-29.583333333333332,133.33333333333334,-30C161.11111111111111,-30.416666666666668,172.22222222222223,35.666666666666664,200,39C227.77777777777777,42.333333333333336,238.8888888888889,-17.541666666666668,266.6666666666667,-14C294.44444444444446,-10.458333333333332,305.5555555555556,57.875,333.33333333333337,56C361.11111111111114,54.125,372.22222222222223,-23.416666666666668,400,-23C427.77777777777777,-22.583333333333332,438.8888888888889,56.541666666666664,466.6666666666667,58C494.44444444444446,59.458333333333336,505.5555555555556,-14.958333333333334,533.3333333333334,-16C561.1111111111111,-17.041666666666668,572.2222222222222,50.916666666666664,600,53C627.7777777777778,55.083333333333336,638.8888888888889,-8.083333333333334,666.6666666666667,-6C694.4444444444446,-3.9166666666666665,707.6388888888889,59.666666666666664,733.3333333333334,63C759.0277777777778,66.33333333333333,778.1944444444445,21.041666666666668,790,10"
            transform="matrix(1,0,0,1,0,50)"></path>
        <path
            d="M10,10C21.805555555555557,16.458333333333336,40.97222222222223,49.333333333333336,66.66666666666667,41C92.36111111111111,32.666666666666664,105.55555555555557,-29.583333333333332,133.33333333333334,-30C161.11111111111111,-30.416666666666668,172.22222222222223,35.666666666666664,200,39C227.77777777777777,42.333333333333336,238.8888888888889,-17.541666666666668,266.6666666666667,-14C294.44444444444446,-10.458333333333332,305.5555555555556,57.875,333.33333333333337,56C361.11111111111114,54.125,372.22222222222223,-23.416666666666668,400,-23C427.77777777777777,-22.583333333333332,438.8888888888889,56.541666666666664,466.6666666666667,58C494.44444444444446,59.458333333333336,505.5555555555556,-14.958333333333334,533.3333333333334,-16C561.1111111111111,-17.041666666666668,572.2222222222222,50.916666666666664,600,53C627.7777777777778,55.083333333333336,638.8888888888889,-8.083333333333334,666.6666666666667,-6C694.4444444444446,-3.9166666666666665,707.6388888888889,59.666666666666664,733.3333333333334,63C759.0277777777778,66.33333333333333,778.1944444444445,21.041666666666668,790,10"
            transform="matrix(1,0,0,1,0,40)"></path>
        <path
            d="M10,10C21.805555555555557,16.458333333333336,40.97222222222223,49.333333333333336,66.66666666666667,41C92.36111111111111,32.666666666666664,105.55555555555557,-29.583333333333332,133.33333333333334,-30C161.11111111111111,-30.416666666666668,172.22222222222223,35.666666666666664,200,39C227.77777777777777,42.333333333333336,238.8888888888889,-17.541666666666668,266.6666666666667,-14C294.44444444444446,-10.458333333333332,305.5555555555556,57.875,333.33333333333337,56C361.11111111111114,54.125,372.22222222222223,-23.416666666666668,400,-23C427.77777777777777,-22.583333333333332,438.8888888888889,56.541666666666664,466.6666666666667,58C494.44444444444446,59.458333333333336,505.5555555555556,-14.958333333333334,533.3333333333334,-16C561.1111111111111,-17.041666666666668,572.2222222222222,50.916666666666664,600,53C627.7777777777778,55.083333333333336,638.8888888888889,-8.083333333333334,666.6666666666667,-6C694.4444444444446,-3.9166666666666665,707.6388888888889,59.666666666666664,733.3333333333334,63C759.0277777777778,66.33333333333333,778.1944444444445,21.041666666666668,790,10"
            transform="matrix(1,0,0,1,0,30)"></path>
        <path
            d="M10,10C21.805555555555557,16.458333333333336,40.97222222222223,49.333333333333336,66.66666666666667,41C92.36111111111111,32.666666666666664,105.55555555555557,-29.583333333333332,133.33333333333334,-30C161.11111111111111,-30.416666666666668,172.22222222222223,35.666666666666664,200,39C227.77777777777777,42.333333333333336,238.8888888888889,-17.541666666666668,266.6666666666667,-14C294.44444444444446,-10.458333333333332,305.5555555555556,57.875,333.33333333333337,56C361.11111111111114,54.125,372.22222222222223,-23.416666666666668,400,-23C427.77777777777777,-22.583333333333332,438.8888888888889,56.541666666666664,466.6666666666667,58C494.44444444444446,59.458333333333336,505.5555555555556,-14.958333333333334,533.3333333333334,-16C561.1111111111111,-17.041666666666668,572.2222222222222,50.916666666666664,600,53C627.7777777777778,55.083333333333336,638.8888888888889,-8.083333333333334,666.6666666666667,-6C694.4444444444446,-3.9166666666666665,707.6388888888889,59.666666666666664,733.3333333333334,63C759.0277777777778,66.33333333333333,778.1944444444445,21.041666666666668,790,10"
            transform="matrix(1,0,0,1,0,20)"></path>
        <path
            d="M10,10C21.805555555555557,16.458333333333336,40.97222222222223,49.333333333333336,66.66666666666667,41C92.36111111111111,32.666666666666664,105.55555555555557,-29.583333333333332,133.33333333333334,-30C161.11111111111111,-30.416666666666668,172.22222222222223,35.666666666666664,200,39C227.77777777777777,42.333333333333336,238.8888888888889,-17.541666666666668,266.6666666666667,-14C294.44444444444446,-10.458333333333332,305.5555555555556,57.875,333.33333333333337,56C361.11111111111114,54.125,372.22222222222223,-23.416666666666668,400,-23C427.77777777777777,-22.583333333333332,438.8888888888889,56.541666666666664,466.6666666666667,58C494.44444444444446,59.458333333333336,505.5555555555556,-14.958333333333334,533.3333333333334,-16C561.1111111111111,-17.041666666666668,572.2222222222222,50.916666666666664,600,53C627.7777777777778,55.083333333333336,638.8888888888889,-8.083333333333334,666.6666666666667,-6C694.4444444444446,-3.9166666666666665,707.6388888888889,59.666666666666664,733.3333333333334,63C759.0277777777778,66.33333333333333,778.1944444444445,21.041666666666668,790,10"
            transform="matrix(1,0,0,1,0,10)"></path>
    </g>
</svg>