<?xml version="1.0" encoding="utf-8"?>
<!DOCTYPE svg PUBLIC "-//W3C//DTD SVG 1.0//EN" "http://www.w3.org/TR/2001/REC-SVG-20010904/DTD/svg10.dtd">
<svg version="1.0" xmlns="http://www.w3.org/2000/svg" width="85px" height="152px" viewBox="0 0 85 152" preserveAspectRatio="xMidYMid meet">
 <g fill="#0e0500">
  <path d="M56 56 l0 -37 3.5 0 3.5 0 0 37 0 37 -3.5 0 -3.5 0 0 -37z"/>
 </g>
 <g fill="#191716">
  <path d="M56 109 c0 -18.4 0.2 -22 1.4 -22 0.8 0 1.7 0.8 1.9 1.8 0.4 1.6 0.5 1.6 0.6 0 0 -1 0.8 -1.8 1.6 -1.8 1.3 0 1.5 3.1 1.5 22 l0 22 -3.5 0 -3.5 0 0 -22z"/>
  <path d="M23 21 l0 -10 20 0 20 0 0 7 c0 5.4 -0.3 7 -1.4 7 -0.8 0 -1.7 -0.8 -1.9 -1.7 -0.4 -1.7 -0.5 -1.7 -0.6 0 -0.2 3 -3.1 2 -3.1 -1.2 0 -3.7 -1.5 -4.1 -15.2 -4.1 l-10.8 0 0 6.5 0 6.5 -3.5 0 -3.5 0 0 -10z"/>
 </g>
 <g fill="#312a24">
  <path d="M23 63 c0 -32.2 0.2 -38 1.4 -38 0.8 0 1.7 0.8 1.9 1.8 0.4 1.6 0.5 1.6 0.6 0 0 -1 0.8 -1.8 1.6 -1.8 1.3 0 1.5 4.9 1.5 38 l0 38 -3.5 0 -3.5 0 0 -38z"/>
  <path d="M28.3 18.3 c-0.7 -0.2 -1.3 -1.1 -1.3 -1.9 0 -1.1 2.1 -1.4 10.5 -1.4 9.8 0 10.5 0.1 10.5 2 0 1.9 -0.6 2 -9.2 1.9 -5.1 0 -9.9 -0.3 -10.5 -0.6z"/>
  <path d="M21.3 17.3 c-0.7 -0.2 -1.3 -2 -1.3 -3.9 0 -2.7 0.4 -3.4 2 -3.4 1.1 0 2 -0.4 2 -1 0 -0.5 1.5 -1 3.4 -1 2.6 0 3.6 0.5 4.1 2 0.6 1.8 1.5 2 8.6 2 4.6 0 7.9 0.4 7.9 1 0 0.6 -4.3 1 -11 1 -10.3 0 -11 0.1 -11 2 0 2 -1.9 2.5 -4.7 1.3z"/>
  <path d="M38 6.5 l0 -3.5 7.5 0 7.5 0 0 3.5 0 3.5 -7.5 0 -7.5 0 0 -3.5z"/>
 </g>
 <g fill="#202f3d">
  <path d="M0 143.5 c0 -7.8 0.2 -8.5 2 -8.5 1.5 0 2 0.7 2 2.9 0 1.7 0.5 3.3 1 3.6 0.6 0.3 1 2.8 1 5.6 0 4.8 -0.1 4.9 -3 4.9 l-3 0 0 -8.5z"/>
  <path d="M29.5 139.6 c-5.7 -1.8 -6.4 -4.4 -6.4 -26.3 -0.1 -15.2 0.1 -18.3 1.3 -18.3 0.8 0 1.7 0.8 1.9 1.7 0.4 1.7 0.5 1.7 0.6 0.1 0 -1 0.7 -1.8 1.5 -1.8 1.4 0 2 3.3 3.1 16.5 0.8 9.1 3.7 14.9 8.8 17.4 3.7 1.8 3.9 1.8 7.6 0 6.4 -3.1 7.1 -5 7.1 -20.4 0 -12.8 0.1 -13.5 2 -13.5 1.9 0 2 0.8 2.3 16.8 l0.3 16.7 0.2 -16.7 c0.1 -10.4 0.6 -16.8 1.2 -16.8 0.6 0 1 7.3 1 19.8 0 18 -0.2 20 -1.8 21.5 -1 1 -2.3 1.7 -2.9 1.7 -0.6 0 -1.3 0.6 -1.5 1.2 -0.6 1.8 -21.1 2.1 -26.3 0.4z"/>
 </g>
 <g fill="#544031">
  <path d="M29.8 140.3 c-1 -0.2 -1.8 -1.1 -1.8 -1.8 0 -0.8 -1 -1.5 -2.2 -1.7 -1.6 -0.2 -2.5 -1.2 -2.9 -3.3 -0.4 -1.6 -0.7 -29.7 -0.8 -62.2 -0.1 -58.7 -0.1 -59.3 1.9 -59.3 1.1 0 2 -0.4 2 -1 0 -0.5 -0.4 -1 -1 -1 -0.5 0 -1 -1.6 -1 -3.5 l0 -3.5 10 0 c8 0 10 0.3 10 1.4 0 0.8 -0.8 1.7 -1.7 1.9 -1.7 0.4 -1.7 0.5 0 0.6 0.9 0 1.7 0.8 1.7 1.6 0 1 1.1 1.5 3.5 1.5 1.9 0 3.5 0.5 3.5 1 0 1.3 5.7 1.3 6.5 0 0.3 -0.5 2.4 -1 4.6 -1 3.7 0 3.9 0.1 3.9 3.3 -0.1 3.7 -2 6.7 -4.4 6.7 -1.1 0 -1.6 -0.9 -1.6 -3 l0 -3 -15.5 0 c-13.6 0 -15.5 -0.2 -16.4 -1.7 -0.6 -1 -1.1 -1.2 -1.1 -0.5 0 0.6 -1 1.2 -2.2 1.2 -2.1 0.1 -2.1 0.2 -0.6 1.1 1.7 0.9 1.8 4.8 1.9 57.7 0 41.2 0.3 57.6 1.2 60.1 1 3 1.9 3.6 6.5 4.9 6.2 1.7 7.2 4.3 1.5 4.1 -2.1 -0.1 -4.6 -0.3 -5.5 -0.6z"/>
  <path d="M46 139.5 c0 -0.8 1.4 -1.7 3.5 -2.1 1.9 -0.3 3.5 -1 3.5 -1.5 0 -0.5 0.6 -0.9 1.3 -0.9 2.1 0 4.4 -3.1 5.2 -6.7 1 -5.1 3.5 -4.2 3.5 1.2 0 3.8 -0.3 4.5 -2 4.5 -1.4 0 -2 0.7 -2 2.3 0 2.9 -3.5 4.7 -9 4.7 -2.8 0 -4 -0.4 -4 -1.5z"/>
  <path d="M27.8 106.5 c-0.5 -3.8 -0.8 -25.9 -0.8 -49 l0 -42 14.3 0.1 c17.8 0.1 17.7 0 17.7 2.2 0 1.5 -0.9 1.7 -8.2 1.4 -4.6 -0.2 -8.4 -0.8 -8.6 -1.3 -0.5 -1.2 -7.2 -1.1 -7.2 0.1 0 0.6 -1.3 1 -3 1 l-3 0 -0.2 47.3 c-0.2 27.8 -0.6 44.3 -1 40.2z"/>
 </g>
 <g fill="#364750">
  <path d="M2.6 149 c0.4 -1.6 0.2 -3.6 -0.4 -4.3 -0.6 -0.7 -1.4 -4.3 -1.8 -8 l-0.7 -6.7 2.7 0 c1.4 0 2.6 0.5 2.6 1 0 0.6 1.7 1 3.8 1 7.3 0 8.2 0.7 8.2 6.1 0 3.7 -0.4 4.9 -1.5 4.9 -1.1 0 -1.5 1.2 -1.5 4.5 l0 4.5 -6 0 -5.9 0 0.5 -3z"/>
  <path d="M39.8 133.3 c-3.1 -0.8 -1.9 -3.1 2 -3.7 13.4 -2.4 16.9 -1.5 9 2.4 -4 1.9 -7.2 2.3 -11 1.3z"/>
  <path d="M35 130.7 c-1.6 -1.2 -6 -7.9 -6 -9.1 0 -0.3 1.1 -0.6 2.5 -0.6 2 0 2.5 0.5 2.5 2.5 0 1.6 0.6 2.5 1.5 2.5 1 0 1.5 1 1.5 3 0 3.4 0 3.4 -2 1.7z"/>
  <path d="M28.7 113.8 c-0.3 -1.3 -0.9 -6 -1.3 -10.5 l-0.7 -8.3 2.7 0 2.6 0 0 10.5 c0 8.3 -0.3 10.5 -1.4 10.5 -0.8 0 -1.6 -1 -1.9 -2.2z"/>
  <path d="M24.3 101 c0 -3.6 0.2 -5 0.4 -3.2 0.2 1.7 0.2 4.7 0 6.5 -0.2 1.7 -0.4 0.3 -0.4 -3.3z"/>
  <path d="M55 94.5 c0 -5.8 0.2 -6.5 2 -6.5 1.7 0 2 0.7 2 4.3 0 5.6 -0.9 8.7 -2.6 8.7 -1.1 0 -1.4 -1.6 -1.4 -6.5z"/>
  <path d="M60 94.5 c0 -3.7 0.4 -6.5 1 -6.5 0.6 0 1 2.8 1 6.5 0 3.7 -0.4 6.5 -1 6.5 -0.6 0 -1 -2.8 -1 -6.5z"/>
 </g>
 <g fill="#7e593e">
  <path d="M11 141.5 c0 -0.8 0.7 -1.5 1.5 -1.5 0.8 0 1.5 -0.9 1.5 -2 0 -1.1 -0.7 -2 -1.5 -2 -0.8 0 -1.5 -0.7 -1.5 -1.5 0 -1 1.1 -1.5 3.5 -1.5 l3.5 0 0 5 0 5 -3.5 0 c-2.4 0 -3.5 -0.5 -3.5 -1.5z"/>
  <path d="M57 94.2 c0 -6.3 0.4 -10.2 1 -10.2 1 0 0.3 18.8 -0.6 19.9 -0.2 0.2 -0.4 -4.1 -0.4 -9.7z"/>
  <path d="M60 94 c0 -9.3 0.1 -10 2 -10 1.9 0 2 0.7 2 10 0 9.3 -0.1 10 -2 10 -1.9 0 -2 -0.7 -2 -10z"/>
  <path d="M24.3 93.5 c0 -4.4 0.2 -6.1 0.4 -3.7 0.2 2.3 0.2 5.9 0 8 -0.2 2 -0.4 0.1 -0.4 -4.3z"/>
  <path d="M29 99.5 c0 -0.8 -0.4 -1.5 -1 -1.5 -0.6 0 -1 -2.7 -1 -6 0 -5.7 0.1 -6 2.5 -6 2.8 0 2.9 0.8 1.9 9.8 -0.4 2.8 -1.1 5.2 -1.5 5.2 -0.5 0 -0.9 -0.7 -0.9 -1.5z"/>
  <path d="M57 35.5 c0 -12.3 0.4 -19.5 1 -19.5 0.6 0 1 7.2 1 19.5 0 12.3 -0.4 19.5 -1 19.5 -0.6 0 -1 -7.2 -1 -19.5z"/>
  <path d="M60 36.4 c0 -17.6 0.6 -22.4 3 -22.4 0.6 0 1 8 1 20.5 0 19.8 -0.1 20.5 -2 20.5 -1.9 0 -2 -0.7 -2 -18.6z"/>
 </g>
 <g fill="#655e55">
  <path d="M10.6 148.4 c-1.1 -4.1 0.2 -8.4 2.5 -8.4 1.2 0 1.9 -0.7 1.9 -1.9 0 -1.4 -1 -2.1 -3.5 -2.5 -5.6 -1.1 -4.6 -3.6 1.5 -3.6 l5 0 0 3.5 c0 1.9 -0.4 3.5 -1 3.5 -0.5 0 -1 1.1 -1 2.5 0 1.4 -0.4 2.5 -1 2.5 -0.5 0 -1 1.6 -1 3.5 0 4.2 -2.4 4.8 -3.4 0.9z"/>
  <path d="M28.4 97.5 c-0.3 -1.9 -0.3 -4.6 0 -5.9 0.4 -1.5 0.1 -2.6 -0.7 -2.9 -0.6 -0.3 0 -0.6 1.6 -0.6 2.7 -0.1 2.7 0 2.7 6.4 0 5 -0.3 6.5 -1.5 6.5 -0.8 0 -1.7 -1.4 -2.1 -3.5z"/>
  <path d="M48.3 16.3 c2 -0.2 5.4 -0.2 7.5 0 2 0.2 0.3 0.4 -3.8 0.4 -4.1 0 -5.8 -0.2 -3.7 -0.4z"/>
  <path d="M61 16.2 c0 -0.4 0.5 -1.3 1 -1.8 0.7 -0.7 -0.6 -0.9 -4.4 -0.6 -7.1 0.6 -12.6 -0.5 -12.6 -2.3 0 -0.8 0.5 -1.5 1 -1.5 0.6 0 1 -0.6 1 -1.4 0 -0.8 0.8 -1.7 1.8 -1.9 1.6 -0.4 1.6 -0.5 0 -0.6 -1 0 -1.8 -0.8 -1.8 -1.6 0 -1.2 1.5 -1.5 7.9 -1.5 l7.8 0 0.7 4.6 c1 7.3 0.8 9.4 -0.9 9.4 -0.8 0 -1.5 -0.4 -1.5 -0.8z"/>
  <path d="M22 7.9 l0 -5.2 6.1 0.7 c3.4 0.3 7.3 0.6 8.5 0.6 1.3 0 2.4 0.4 2.4 1 0 0.5 -2.8 1.1 -6.2 1.3 l-6.3 0.3 6.3 0.2 c5.5 0.2 6.2 0.4 6.2 2.2 0 1.7 -0.7 2 -4.4 2 -2.6 0 -4.6 0.5 -4.9 1.3 -0.4 0.9 -0.8 0.8 -1.6 -0.3 -0.7 -1 -1.1 -1.1 -1.1 -0.2 0 0.6 -1.1 1.2 -2.5 1.2 -2.3 0 -2.5 -0.3 -2.5 -5.1z"/>
 </g>
 <g fill="#44757f">
  <path d="M36.8 131.9 c-3.2 -1.8 -1.9 -2.9 3.2 -2.9 4.3 0 5 0.3 5 2 0 1.6 -0.7 2 -3.2 2 -1.8 0 -4.1 -0.5 -5 -1.1z"/>
  <path d="M48 129.3 c0 -1.9 0.5 -2.3 3 -2.3 2.9 0 3 -0.2 3 -4.5 0 -3.8 0.3 -4.5 2 -4.5 1.6 0 2 0.7 2 3.6 0 4.7 -3.1 9 -7 9.6 -2.6 0.4 -3 0.1 -3 -1.9z"/>
  <path d="M60.3 123.5 c0 -3.3 0.2 -4.5 0.4 -2.7 0.2 1.8 0.2 4.5 0 6 -0.2 1.5 -0.4 0 -0.4 -3.3z"/>
  <path d="M29 95.5 c0 -3.7 -0.4 -6.5 -1 -6.5 -0.5 0 -1 -0.7 -1 -1.5 0 -1.2 1.8 -1.5 10 -1.5 l10 0 0 3.5 c0 2.6 -0.4 3.5 -1.7 3.5 -1 0 -4.1 0.6 -7 1.2 -5.1 1.2 -5.3 1.4 -5.3 4.5 0 2.6 -0.4 3.3 -2 3.3 -1.8 0 -2 -0.7 -2 -6.5z"/>
 </g>
 <g fill="#956847">
  <path d="M34 140 c0 -1.8 0.7 -2 8.5 -2 7.8 0 8.5 0.2 8.5 2 0 1.8 -0.7 2 -8.5 2 -7.8 0 -8.5 -0.2 -8.5 -2z"/>
  <path d="M53 138.3 c0 -0.5 1.6 -2.4 3.5 -4.3 l3.5 -3.4 0 4.2 c0 4.1 -0.1 4.2 -3.5 4.2 -1.9 0 -3.5 -0.3 -3.5 -0.7z"/>
  <path d="M13.8 135.3 c-1.4 -0.3 -1.8 -1.5 -1.8 -4.8 0 -2.4 -0.9 -7.2 -2 -10.7 -1.1 -3.4 -2 -7.8 -2 -9.5 0 -3.1 0.2 -3.3 3.3 -3.3 2.9 0 3.6 0.5 5.1 3.7 1.9 4 4.3 21.1 3.3 23.7 -0.6 1.6 -2.4 1.8 -5.9 0.9z"/>
  <path d="M60 114.3 c0 -13 0.6 -16.3 2.6 -16.3 1.1 0 1.4 2.7 1.4 14 0 13.3 -0.1 14 -2 14 -1.9 0 -2 -0.7 -2 -11.7z"/>
  <path d="M57.4 109.5 c0 -6.6 0.1 -9.2 0.3 -5.7 0.2 3.4 0.2 8.8 0 12 -0.2 3.1 -0.3 0.3 -0.3 -6.3z"/>
  <path d="M1.6 103.8 c-1 -1.4 -1.6 -4.4 -1.6 -7.5 0 -4.6 0.3 -5.3 1.9 -5.3 3 0 8.1 7.1 8.1 11.4 0 3.4 -0.2 3.6 -3.4 3.6 -2.5 0 -3.9 -0.7 -5 -2.2z"/>
  <path d="M57 69.5 c0 -13 0.4 -20.5 1 -20.5 0.6 0 1 7.5 1 20.5 0 13 -0.4 20.5 -1 20.5 -0.6 0 -1 -7.5 -1 -20.5z"/>
  <path d="M60.6 87.8 c-0.8 -3 -0.8 -33.6 0 -36.5 0.4 -1.3 1.3 -2.3 2 -2.3 1.1 0 1.4 3.7 1.4 20.5 0 16.8 -0.3 20.5 -1.4 20.5 -0.7 0 -1.6 -1 -2 -2.2z"/>
  <path d="M24.2 45.3 l-0.2 -28.3 -2.5 0 c-2.1 0 -2.5 -0.5 -2.5 -3 0 -1.7 0.6 -4.8 1.2 -7 1.2 -3.6 1.6 -4 4.5 -4 1.8 0 3.3 0.4 3.3 0.9 0 0.5 1 1.2 2.3 1.4 1.3 0.3 0.8 0.5 -1.5 0.6 -3.3 0.1 -3.8 0.4 -3.7 2.4 0 1.2 0.3 1.6 0.6 1 0.2 -0.7 1.8 -1.3 3.4 -1.3 2.4 0 2.9 0.4 2.9 2.5 0 1.8 -0.5 2.5 -1.9 2.5 -1.1 0 -2.2 -0.6 -2.5 -1.2 -0.5 -1 -0.7 -1 -1.2 0 -0.3 0.6 -1.3 1.2 -2.2 1.2 -1.3 0 -1.4 0.2 -0.4 0.8 0.9 0.7 1.2 7.4 0.9 30.3 l-0.2 29.4 -0.3 -28.2z"/>
  <path d="M27 44.5 c0 -27.8 0 -28.5 2 -28.5 2 0 2 0.7 2 28.5 0 27.8 0 28.5 -2 28.5 -2 0 -2 -0.7 -2 -28.5z"/>
  <path d="M33 9.6 c0 -1.7 3.1 -2.6 8.8 -2.6 3.5 0 4.2 0.3 4.2 2 0 1.8 -0.7 2 -6.5 2 -4.9 0 -6.5 -0.3 -6.5 -1.4z"/>
  <path d="M33 5 c0 -0.6 2.8 -1 6.5 -1 3.7 0 6.5 0.4 6.5 1 0 0.6 -2.8 1 -6.5 1 -3.7 0 -6.5 -0.4 -6.5 -1z"/>
 </g>
 <g fill="#ae754f">
  <path d="M12 142 c0 -0.6 0.7 -1.3 1.5 -1.6 2 -0.8 2 -5.4 -0.1 -5.4 -1.1 0 -1.4 -0.8 -1.2 -2.7 0.4 -3.4 2.5 -4.1 3.1 -1.1 l0.4 2.3 0.8 -2.2 c0.4 -1.3 1.4 -2.3 2.1 -2.3 1.1 0 1.4 1.7 1.4 7 l0 7 -4 0 c-2.2 0 -4 -0.5 -4 -1z"/>
  <path d="M27 137.5 c0 -2 -0.5 -2.5 -2.5 -2.5 -2.3 0 -2.5 -0.3 -2.5 -5 0 -3.8 0.4 -5 1.5 -5 1 0 1.7 1.4 2.1 4 0.7 4.1 4.1 8 7 8 0.8 0 1.4 0.7 1.4 1.5 0 1 -1.1 1.5 -3.5 1.5 -3.1 0 -3.5 -0.3 -3.5 -2.5z"/>
  <path d="M51 138.9 c0 -0.6 1.4 -1.6 3 -2.2 1.7 -0.6 3 -1.7 3 -2.3 0 -0.6 0.7 -1.7 1.5 -2.4 0.8 -0.7 1.5 -2.7 1.5 -4.4 0 -4.6 1.1 -7.6 2.6 -7.6 1 0 1.4 1.6 1.4 6 0 4.7 -0.3 6 -1.5 6 -0.9 0 -1.5 1 -1.5 2.6 0 1.4 -0.6 3.2 -1.4 4 -1.7 1.6 -8.6 1.9 -8.6 0.3z"/>
  <path d="M0.1 133.3 c-0.1 -2.7 0.3 -3.3 1.9 -3.3 1.5 0 2 0.7 2 2.5 0 2.5 -1.9 3.6 -2.1 1.3 0 -0.7 -0.4 -0.4 -0.9 0.7 -0.7 1.7 -0.9 1.5 -0.9 -1.2z"/>
  <path d="M5.3 110 c-1.3 -2.1 -2.3 -5.3 -2.3 -7.1 l0 -3.2 2.2 1.9 c1.9 1.7 2.1 1.7 1.5 0.2 -0.5 -1.4 -0.1 -1.8 1.8 -1.8 3.2 0 5.5 4.4 5.5 10.2 -0.1 4.3 -0.1 4.3 -1.6 1.8 -1.4 -2.3 -1.4 -2.3 -0.9 -0.2 0.5 1.8 0.2 2.2 -1.7 2.2 -1.6 0 -3 -1.2 -4.5 -4z"/>
  <path d="M24.4 79.5 c0 -7.1 0.1 -9.9 0.3 -6.2 0.2 3.7 0.2 9.6 0 13 -0.2 3.4 -0.3 0.4 -0.3 -6.8z"/>
  <path d="M27 80.3 c0 -10.1 0.7 -13.3 2.6 -13.3 1.1 0 1.4 2.3 1.4 11 0 10.3 -0.1 11 -2 11 -1.8 0 -2 -0.7 -2 -8.7z"/>
  <path d="M31 10.5 c0 -2.3 0.4 -2.5 4.8 -2.6 2.6 -0.1 9.2 -0.5 14.7 -0.9 l10 -0.7 -15 -0.3 c-8.2 -0.2 -12.2 -0.5 -8.8 -0.7 5.5 -0.4 6.2 -0.6 6.7 -2.8 0.5 -2.1 1.3 -2.5 4.1 -2.5 1.9 0 3.5 0.5 3.5 1 0 0.6 2.5 1 5.5 1 l5.5 0 0 3.5 0 3.5 -6 0 c-5.3 0 -6 0.2 -6 2 0 1.9 -0.7 2 -9.5 2 -9.5 0 -9.5 0 -9.5 -2.5z"/>
 </g>
 <g fill="#488c9f">
  <path d="M39.5 132.3 c-3.7 -0.6 -5.1 -1.7 -8.2 -6.7 -2.4 -3.7 -2.5 -4.3 -2.1 -19.7 0.3 -14.3 0.5 -15.9 2.1 -15.9 0.9 0 1.7 0.5 1.7 1.1 0 0.6 0.9 0.8 2.3 0.3 1.2 -0.4 3.8 -1.1 5.7 -1.5 2.7 -0.5 1.4 -0.7 -5 -0.9 -7.7 -0.2 -8.1 -0.3 -4 -1.1 2.5 -0.4 6.9 -0.8 9.8 -0.8 5.2 -0.1 5.2 -0.1 5.2 3 0 5 -1.6 6.9 -5.8 6.9 -2.1 0 -4.3 -0.5 -5 -1.2 -2 -2 -2.6 0 -3 10.8 -0.4 10.1 0.7 16.4 2.9 16.4 0.5 0 0.9 1.1 0.9 2.5 l0 2.5 8.5 -0.6 c6.9 -0.6 8.5 -0.4 8.5 0.7 0 0.8 -1.9 2.2 -4.3 3.2 -4.3 1.7 -4.7 1.8 -10.2 1z"/>
 </g>
 <g fill="#718e8c">
  <path d="M1.3 133.5 c-2.7 -3 -1.5 -4.5 3.2 -4.5 2.5 0 4.5 0.5 4.5 1 0 0.6 1.1 1 2.5 1 1.8 0 2.5 0.5 2.5 2 0 1.8 -0.7 2 -5.7 2 -3.7 -0.1 -6.3 -0.6 -7 -1.5z"/>
  <path d="M51.2 127.8 c0.2 -1.7 1.1 -2.4 3.1 -2.6 3 -0.4 3.2 0 1.7 2.9 -1.5 2.8 -5.2 2.5 -4.8 -0.3z"/>
 </g>
 <g fill="#c9804e">
  <path d="M23.3 139.5 c-0.3 -0.9 -0.3 -3.1 0 -5 0.4 -2.6 0.2 -3.5 -0.9 -3.5 -1.2 0 -1.4 -8.5 -1.4 -60 0 -38 0.4 -60 1 -60 0.5 0 0.7 0.7 0.4 1.5 -0.4 0.9 0 1.5 1 1.5 1.5 0 1.6 5.5 1.6 58.8 l0 58.8 2.8 2.6 c1.5 1.4 4.2 2.9 6 3.3 1.8 0.4 3.2 1.3 3.2 2.1 0 2.1 -12.8 2 -13.7 -0.1z"/>
  <path d="M11 125.5 c0 -4.9 0.3 -6.5 1.4 -6.5 1.7 0 2.6 3.1 2.6 8.8 0 3.5 -0.3 4.2 -2 4.2 -1.8 0 -2 -0.7 -2 -6.5z"/>
  <path d="M16.6 128.8 c-1.6 -10 -1.2 -11.5 2 -8.4 2 2 1.9 11.6 -0.1 11.6 -0.8 0 -1.6 -1.3 -1.9 -3.2z"/>
  <path d="M6.4 108.5 c-0.3 -1.4 -1 -2.5 -1.5 -2.5 -0.5 0 -0.9 -0.9 -0.9 -2 0 -1.3 -0.7 -2 -2 -2 -1.6 0 -2 -0.7 -2 -3.1 0 -2.7 0.2 -3 1.5 -1.9 1.5 1.3 8.5 12.2 8.5 13.4 0 1.8 -3.1 0.2 -3.6 -1.9z"/>
  <path d="M10.4 107.8 c-0.9 -1.8 -3.2 -5.4 -5.1 -8 -3.2 -4.4 -3.3 -4.8 -1.4 -4.8 1.4 0 2.1 0.6 2.1 2 0 1.5 0.7 2 2.5 2 1.6 0 2.5 0.6 2.5 1.5 0 0.8 0.7 1.5 1.5 1.5 1.1 0 1.5 1.2 1.5 4.5 0 5.3 -1.3 5.8 -3.6 1.3z"/>
  <path d="M80.8 42.8 c-0.9 -0.7 -1.9 -2.6 -2.2 -4.2 -0.4 -1.5 -1.4 -3.5 -2.1 -4.3 -0.9 -0.8 -1.5 -3.3 -1.5 -5.9 0 -4.4 0 -4.4 3.6 -4.4 3.1 0 3.7 0.4 5 3.5 1.8 4.5 1.9 16.5 0.1 16.5 -0.7 0 -2 -0.6 -2.9 -1.2z"/>
  <path d="M34.8 20.3 c-3 -0.3 -3.8 -0.9 -3.8 -2.4 0 -1.7 0.7 -1.9 7 -1.9 6.8 0 7 0.1 7 2.5 0 2.7 -0.6 2.8 -10.2 1.8z"/>
  <path d="M61 16.1 c0 -0.6 0.5 -1.3 1.1 -1.7 0.8 -0.5 0.6 -1 -0.5 -1.6 -0.9 -0.5 -1.6 -2 -1.6 -3.3 0 -2.2 0.5 -2.5 3.5 -2.5 l3.5 0 0 5 c0 4.9 -0.1 5 -3 5 -1.6 0 -3 -0.4 -3 -0.9z"/>
  <path d="M29 10.5 c0 -2 0.5 -2.5 2.5 -2.5 1.4 0 2.5 0.4 2.5 0.9 0 0.5 0.3 1.6 0.6 2.5 0.5 1.3 -0.1 1.6 -2.5 1.6 -2.6 0 -3.1 -0.4 -3.1 -2.5z"/>
  <path d="M22 5.5 l0 -3.5 10.5 0 c6.3 0 10.5 -0.4 10.5 -1 0 -0.5 0.9 -1 2.1 -1 1.6 0 2 0.5 1.7 2.8 l-0.3 2.7 -11.2 0.3 c-9.1 0.2 -11.3 0.5 -11.3 1.7 0 0.8 -0.4 1.5 -1 1.5 -0.5 0 -1 -1.6 -1 -3.5z"/>
  <path d="M45 8 c-2.2 -0.7 -2.1 -0.8 1.3 -0.9 2.3 -0.1 3.6 0.3 3.2 0.9 -0.7 1.1 -1 1.1 -4.5 0z"/>
  <path d="M48 2.5 c0 -1.4 0.5 -2.5 1 -2.5 0.6 0 1 1.1 1 2.5 0 1.4 -0.4 2.5 -1 2.5 -0.5 0 -1 -1.1 -1 -2.5z"/>
 </g>
 <g fill="#b28c63">
  <path d="M6 132.9 c0 -0.7 -1.2 -1 -3 -0.7 -2.6 0.4 -3 0.1 -3 -1.9 0 -2.1 0.5 -2.3 4.5 -2.3 4.3 0 4.5 0.1 4.5 3 0 2 -0.5 3 -1.5 3 -0.8 0 -1.5 -0.5 -1.5 -1.1z"/>
  <path d="M55 55 c0 -38.3 0 -39 2 -39 2 0 2 0.7 2 36.8 0 20.2 -0.3 37.7 -0.6 39 -0.4 1.2 -1.3 2.2 -2 2.2 -1.2 0 -1.4 -6.5 -1.4 -39z"/>
  <path d="M61.2 54.7 c-0.2 -34.6 0 -39.8 1.3 -40.3 0.8 -0.4 1.4 -1.6 1.4 -2.8 -0.1 -1.5 -0.2 -1.7 -0.6 -0.4 -0.2 0.9 -1.3 1.6 -2.4 1.5 -1.6 -0.1 -1.9 -0.7 -1.7 -3.2 0.3 -2.6 0.7 -3 3.6 -3.3 l3.2 -0.3 0 5 c0 4.4 -0.3 5.1 -2 5.1 -1.9 0 -2 0.8 -2.3 39.3 l-0.2 39.2 -0.3 -39.8z"/>
  <path d="M30 91 c-1.2 -0.8 -1.1 -1 0.8 -1 1.2 0 2.2 0.5 2.2 1 0 1.3 -1.1 1.3 -3 0z"/>
  <path d="M43.6 90.5 c0.5 -1.3 -0.7 -1.5 -7.5 -1.5 -7.4 0 -8.1 -0.2 -8.1 -2 0 -1.9 0.7 -2 9.5 -2 l9.5 0 0 3.5 c0 2.8 -0.4 3.5 -2 3.5 -1.3 0 -1.8 -0.5 -1.4 -1.5z"/>
  <path d="M47 9.6 c0 -0.8 -1 -1.7 -2.2 -1.9 -1.3 -0.2 0.1 -0.5 3 -0.6 4.6 -0.1 5.2 0.1 5.2 1.9 0 1.6 -0.7 2 -3 2 -1.9 0 -3 -0.5 -3 -1.4z"/>
  <path d="M41.3 4.3 c0.9 -0.2 2.5 -0.2 3.5 0 0.9 0.3 0.1 0.5 -1.8 0.5 -1.9 0 -2.7 -0.2 -1.7 -0.5z"/>
 </g>
 <g fill="#df894e">
  <path d="M14 141.5 c0 -0.8 0.7 -1.5 1.5 -1.5 3.4 0 1.3 -19.6 -2.8 -27.7 -1 -1.8 -1.7 -4.1 -1.7 -5.2 0 -1 -0.4 -2.1 -0.9 -2.3 -0.5 -0.1 -3 -2.9 -5.5 -6 l-4.6 -5.7 0 -46.5 0 -46.6 23 0 23 0 0 2.5 c0 2.4 -0.1 2.4 -10.6 2.7 l-10.6 0.3 -1.4 4 c-0.8 2.3 -0.9 4.2 -0.4 4.5 0.6 0.3 1.1 24.5 1.2 58.6 0.2 46.1 0.6 58.4 1.6 59.7 0.7 0.8 1.2 2.4 1 3.4 -0.2 1.4 0.5 1.9 3.5 2.1 3.2 0.3 3.7 0.7 3.7 2.8 0 2.4 -0.1 2.4 -10 2.4 -8.2 0 -10 -0.3 -10 -1.5z"/>
  <path d="M51.3 141.3 c-3.5 -0.7 -2.7 -3 1.4 -4 2.8 -0.6 4.2 -1.8 5.9 -4.8 l2.3 -4 0.1 -56.8 c0 -49.5 0.2 -56.8 1.5 -57.3 1.7 -0.7 2 -4 0.5 -4.9 -0.5 -0.3 -1 0.2 -1 1.2 0 1.2 -0.8 1.9 -2 2 -1.1 0.1 -1.8 -0.2 -1.5 -0.6 0.8 -1.3 -2.8 -3.9 -6 -4.4 -1.9 -0.2 -1.1 -0.5 2.3 -0.6 7.1 -0.1 5.8 -2.1 -1.4 -2.1 -5.1 0 -5.4 -0.1 -5.4 -2.5 l0 -2.5 18.5 0 18.5 0 0 19.7 c0 17.5 -0.2 19.5 -1.5 17.7 -1.1 -1.4 -1.4 -1.5 -1.4 -0.4 0 0.8 0.6 2.4 1.4 3.4 1.2 1.6 1.5 9.8 1.5 51.8 l0 49.8 -15.8 -0.1 c-8.6 -0.1 -16.7 -0.4 -17.9 -0.6z m29.7 -110.1 c0 -0.5 -0.7 -1.7 -1.5 -2.8 -1.5 -1.9 -2 -0.8 -0.9 2 0.6 1.7 2.4 2.2 2.4 0.8z"/>
  <path d="M8.8 134.3 c-1.6 -0.2 -2.8 -1.1 -2.8 -1.9 0 -1.7 -3.1 -1.9 -4.8 -0.2 -0.9 0.9 -1.2 -3 -1.2 -17.7 0 -21.6 -0.2 -21.4 7.8 -8.3 4.8 7.8 5.9 11.2 6.7 21.1 0.6 8.5 1 8 -5.7 7z"/>
  <path d="M32 84.2 c0 -0.5 -0.9 -2 -2 -3.3 -1.6 -1.8 -2 -3.4 -1.8 -7.4 0.3 -4.3 0.6 -5 2.6 -5.3 1.6 -0.3 2.5 -1.2 2.9 -3.4 l0.6 -3 6.3 0.5 c3.4 0.2 6.7 0 7.2 -0.5 0.5 -0.5 2.5 -0.8 4.3 -0.6 l3.4 0.3 0.3 9 c0.4 13.2 0.3 13.5 -6.2 13.5 -3 0 -5.6 -0.4 -5.8 -1 -0.2 -0.6 -1.5 -0.4 -3.2 0.5 -3.1 1.6 -8.6 2 -8.6 0.7z"/>
  <path d="M28 32.5 c0 -18.8 -0.9 -17.3 9.3 -15.6 2.6 0.4 4.7 0.4 4.7 -0.1 0 -0.4 1.4 -0.8 3 -0.8 2.5 0 3 0.4 3 2.5 0 1.8 -0.5 2.5 -2 2.5 -1.8 0 -2 0.7 -2 8.5 0 8.4 0 8.5 -2.5 8.5 -1.6 0 -2.5 0.6 -2.5 1.5 0 0.9 -0.7 1.8 -1.5 2.1 -0.8 0.4 -1.5 1.7 -1.5 3 0 1.7 -0.6 2.4 -2 2.4 -1.1 0 -2 0.5 -2 1 0 0.6 -0.9 1 -2 1 -1.9 0 -2 -0.7 -2 -16.5z"/>
 </g>
 <g fill="#57a8ba">
  <path d="M36 130.7 c-1.4 -0.7 -2.4 -2.1 -2.4 -3 0.1 -0.9 -0.2 -1.7 -0.6 -1.7 -2.3 0 -3.2 -6.6 -2.8 -20.5 0.3 -9.6 0.1 -14.6 -0.6 -14.9 -0.6 -0.2 -0.1 -0.5 1.2 -0.5 1.2 -0.1 2.2 0.4 2.2 1 0 0.6 0.7 0.9 1.5 0.5 1.8 -0.7 2.1 3.4 0.4 5.1 -0.8 0.8 -0.8 1.3 0 1.7 1.8 1.2 3.1 -0.3 3.1 -3.6 0 -2.7 0.2 -2.9 1.6 -1.7 1.5 1.2 1.9 1.1 3.2 -0.9 0.8 -1.2 1.8 -2.2 2.3 -2.2 0.5 0 0.9 7.7 0.9 17 l0 17 5.5 0 c3.9 0 5.5 0.4 5.5 1.3 0 2.3 -3.3 4.4 -7.5 5.1 -2.2 0.3 -5.6 0.8 -7.5 1.1 -2.1 0.3 -4.5 0 -6 -0.8z"/>
  <path d="M28 87.8 c0 -0.5 1.8 -0.8 4 -0.8 2.2 0 4 0.2 4 0.4 0 0.2 -1.8 0.6 -4 0.8 -2.2 0.2 -4 0 -4 -0.4z"/>
 </g>
 <g fill="#aa9881">
  <path d="M17 147.5 l0 -3.5 12 0 12 0 0 3.5 0 3.5 -12 0 -12 0 0 -3.5z"/>
  <path d="M63 146.5 l0 -3.5 9 0 9 0 0 3.5 0 3.5 -9 0 -9 0 0 -3.5z"/>
  <path d="M56.6 11.4 c-1.3 -3.3 -0.7 -4.5 2.2 -4.2 2 0.2 2.8 0.9 3 2.8 0.2 2.1 -0.2 2.6 -2.2 2.8 -1.4 0.1 -2.6 -0.5 -3 -1.4z"/>
 </g>
 <g fill="#e0965a">
  <path d="M28 141.5 c0 -0.8 0.7 -1.5 1.5 -1.5 0.8 0 1.5 -0.3 1.5 -0.8 0 -0.6 10 -0.8 32.3 -0.3 7 0.1 7.7 0.3 7.7 2.1 0 1.9 -0.7 2 -21.5 2 -18.4 0 -21.5 -0.2 -21.5 -1.5z"/>
  <path d="M17.6 130.3 c-1.2 -1.2 -0.6 -5.3 0.8 -5.3 0.8 0 1.6 -0.7 1.8 -1.6 0.3 -1.3 0.5 -1.3 2.3 0 2 1.6 2 1.6 -0.2 2.2 -1.3 0.4 -2.3 1.4 -2.3 2.5 0 1.9 -1.3 3.2 -2.4 2.2z"/>
  <path d="M61.4 90.5 c0 -14.3 0.2 -20 0.3 -12.7 0.2 7.3 0.2 19 0 26 -0.1 7 -0.3 1 -0.3 -13.3z"/>
  <path d="M47.9 89.8 c-0.1 -2.4 -0.3 -2.7 -0.6 -1 -0.5 2.5 -3.3 3.1 -3.3 0.6 0 -1.3 -1.2 -1.5 -8 -1.2 l-8 0.3 0 -20.5 c0 -23.3 0.3 -25.4 3.3 -24.4 1.7 0.5 1.9 0.3 1.4 -1.5 -0.3 -1.5 0.1 -2.5 1.4 -3.2 1.4 -0.7 1.8 -1.6 1.4 -3 -0.6 -1.8 -0.3 -2 2.4 -1.6 2.6 0.4 3.1 0.2 3.1 -1.5 0 -3.4 2.5 -1.3 2.8 2.4 0.2 2.9 -0.1 3.6 -1.7 4.1 -1.2 0.3 -2.1 1.2 -2.1 2.1 0 0.9 -0.4 1.6 -1 1.6 -0.5 0 -1 0.5 -1 1 0 0.6 1.6 1 3.5 1 l3.4 0 0.3 7.2 c0.2 4.6 0.7 7.3 1.6 7.6 1.5 0.5 1.7 -6.4 0.2 -7.3 -0.5 -0.3 -1 -2.6 -1 -5 0 -3.9 0.3 -4.5 2.4 -5.1 1.3 -0.3 3.7 -0.4 5.2 -0.2 l2.9 0.3 0.3 25.3 0.2 25.2 -4.5 0 c-4.4 0 -4.5 -0.1 -4.6 -3.2z m-6.1 -10.8 c1.3 0 1.5 -2.5 0.3 -5.5 -0.5 -1.1 -0.5 -2.4 -0.1 -3 1.2 -1.6 -0.8 -5.5 -2.8 -5.5 -1.4 0 -2.1 0.9 -2.5 2.9 -0.4 2.1 -1.3 3 -2.9 3.3 -3 0.4 -3.5 3.7 -0.8 6.8 1.1 1.2 2 2.7 2 3.1 0 0.4 1.2 0.1 2.8 -0.7 1.5 -0.7 3.3 -1.4 4 -1.4z m10.6 0.4 c0.8 -2 0.8 -13.9 0.1 -14.6 -0.4 -0.3 -1.7 -0.1 -3 0.6 -2.9 1.3 -3.6 6.6 -1 6.6 1.9 0 2 1.6 0.2 2.7 -1.7 1 -2.9 4.2 -2.1 5.4 0.9 1.5 5.1 1 5.8 -0.7z"/>
  <path d="M82.2 81.8 c-1.5 -1.5 -1.5 -5.5 -0.1 -9.7 1.8 -5.1 2.9 -3.6 2.9 3.9 0 7 -0.5 8.1 -2.8 5.8z"/>
  <path d="M61.4 35 c0 -10.2 0.2 -14.3 0.3 -9.2 0.2 5 0.2 13.4 0 18.5 -0.1 5 -0.3 0.9 -0.3 -9.3z"/>
  <path d="M28 28.7 l0 -12.7 2.8 0.1 c2.4 0.2 2.4 0.2 0.4 0.6 -2.2 0.4 -2.3 0.7 -2.1 11.9 0.1 6.3 -0.2 11.8 -0.5 12.1 -0.3 0.4 -0.6 -5.1 -0.6 -12z"/>
  <path d="M48 38 c-1.1 -0.7 -1.5 -2.8 -1.4 -8.5 l0 -7.5 -2.8 0 c-2.1 0 -2.8 -0.5 -2.8 -2 0 -1.3 0.7 -2 2 -2 1.1 0 2 -0.4 2 -1 0 -0.5 1.1 -1 2.5 -1 2 0 2.5 0.5 2.5 2.5 0 2 0.5 2.5 2.4 2.5 2.1 0 2.4 0.6 3 5.3 0.4 2.8 1 6.9 1.3 9 l0.5 3.7 -3.8 0 c-2.2 0 -4.6 -0.5 -5.4 -1z"/>
  <path d="M30 28.3 c0 -2.1 0.3 -2.4 0.9 -1.4 0.5 0.8 0.7 2 0.4 2.8 -0.8 2.1 -1.3 1.5 -1.3 -1.4z"/>
  <path d="M44.8 12.3 c1.3 -0.3 2.2 -1.2 2.2 -2.3 0 -2.2 3.7 -3.3 4.4 -1.3 1.4 3.6 0.7 4.3 -4.1 4.2 -2.7 -0.1 -3.8 -0.4 -2.5 -0.6z"/>
  <path d="M29 10 c0 -1.5 0.7 -2 2.6 -2 2 0 2.5 0.4 2 1.6 -0.3 0.9 -0.6 1.8 -0.6 2 0 0.2 -0.9 0.4 -2 0.4 -1.3 0 -2 -0.7 -2 -2z"/>
 </g>
 <g fill="#dfa064">
  <path d="M15 149.2 l0 -2.9 13.3 -0.6 c7.2 -0.4 23 -1 35 -1.3 l21.7 -0.7 0 4.1 0 4.2 -35 0 -35 0 0 -2.8z m18.8 -1.9 c-2.7 -0.2 -6.9 -0.2 -9.5 0 -2.7 0.2 -0.5 0.3 4.7 0.3 5.2 0 7.4 -0.1 4.8 -0.3z m41.5 -1 c-1.8 -0.2 -4.8 -0.2 -6.5 0 -1.8 0.2 -0.4 0.4 3.2 0.4 3.6 0 5 -0.2 3.3 -0.4z"/>
  <path d="M65 141.6 c0 -1.9 3.2 -2.6 12.3 -2.6 7 0 7.7 0.2 7.7 2 0 1.9 -0.7 2 -10 2 -7.8 0 -10 -0.3 -10 -1.4z"/>
  <path d="M46 91.1 c0 -1.1 -0.5 -2.1 -1.1 -2.3 -1 -0.3 -3.2 -28.1 -2.9 -37 0 -2.5 -0.4 -3.8 -1.2 -3.8 -2.4 0.1 -4.8 2.7 -4.8 5.4 0 1.4 -0.4 2.6 -1 2.6 -0.5 0 -1 -0.7 -1 -1.5 0 -0.8 -0.4 -1.5 -1 -1.5 -0.5 0 -1 -1.3 -1 -3 0 -1.6 0.4 -3 0.9 -3 0.5 0 1.1 -1.2 1.3 -2.7 0.4 -3.5 3.5 -4.1 8.3 -1.9 4.4 2.1 5.3 2 5.7 -0.6 0.2 -1.9 1 -2.4 4.6 -2.6 l4.2 -0.3 0 5 c0 3.7 -0.4 5.1 -1.4 5.1 -0.7 0 -1.6 -0.9 -1.9 -2 -0.6 -2.2 -1.4 -2.4 -3.7 -1 -1.2 0.7 -1.3 1.3 -0.3 2.8 0.6 1 1.1 4.6 1.1 8 0 5.5 -0.2 6.2 -1.9 6.2 -2.8 0 -3.2 2 -2.4 10.5 0.4 5.1 1.1 7.5 2 7.5 1.3 0 2.5 3 2.5 6.8 0 1.3 0.6 2.2 1.5 2.2 0.8 0 1.5 0.7 1.5 1.5 0 1.1 -1.1 1.5 -4 1.5 -3.3 0 -4 -0.3 -4 -1.9z"/>
  <path d="M28 82 c0 -5.6 0.3 -7 1.5 -7 1.2 0 1.5 1.4 1.5 6.4 0 4.8 -0.4 6.5 -1.5 7 -1.2 0.4 -1.5 -0.6 -1.5 -6.4z"/>
  <path d="M82.4 77.6 c-0.4 -1.6 0 -3.4 1 -4.8 1.6 -2.2 1.6 -2.1 1.6 2.5 0 5 -1.5 6.4 -2.6 2.3z"/>
  <path d="M54 69.5 c0 -7.8 0.2 -8.5 2 -8.5 1.8 0 2 0.7 2 8.5 0 7.8 -0.2 8.5 -2 8.5 -1.8 0 -2 -0.7 -2 -8.5z"/>
  <path d="M32.5 70 c-1.8 -0.7 -1.9 -0.8 -0.2 -1.5 0.9 -0.4 1.7 -1.3 1.7 -2.1 0 -0.8 0.5 -1.4 1 -1.4 0.6 0 1 1.4 1 3 0 3.2 -0.3 3.3 -3.5 2z"/>
  <path d="M41 27.5 c0 -8.3 0 -8.5 2.4 -8.5 2.8 0 4.3 -1.6 2.4 -2.3 -0.7 -0.3 1.3 -0.6 4.5 -0.6 l5.7 -0.1 0 9.5 c0 7.4 -0.3 9.5 -1.4 9.5 -1.6 0 -2.6 -3 -2.6 -7.9 0 -2.7 -0.3 -3.2 -1.2 -2.3 -0.6 0.6 -1.1 3.3 -1.2 5.9 0 2.6 -0.2 4 -0.4 3.1 -0.5 -2.5 -4.2 -2.3 -4.2 0.2 0 1.3 -0.7 2 -2 2 -1.8 0 -2 -0.7 -2 -8.5z"/>
 </g>
 <g fill="#74bbbd">
  <path d="M43.7 130.4 c-0.4 -0.4 -0.7 -7.4 -0.7 -15.6 0 -8.1 -0.4 -14.8 -0.8 -14.8 -0.4 0 -1.3 0.5 -2 1.2 -0.9 0.9 -1.2 0.3 -1.2 -3 0 -4.3 1.2 -5.4 2.8 -2.6 0.7 1.2 1.1 0.3 1.6 -3.5 0.6 -4.9 0.8 -5.1 3.7 -5.1 2.4 0 3 0.4 2.5 1.5 -0.4 1.1 0.1 1.5 1.9 1.5 1.6 0 2.5 -0.6 2.5 -1.5 0 -0.8 0.7 -1.5 1.5 -1.5 1.2 0 1.5 1.5 1.5 7.4 0 9.1 -0.5 10.6 -3.6 10.6 -2.3 0 -2.4 0.3 -2.4 6.5 0 5.8 -0.2 6.5 -2 6.5 -1.6 0 -1.9 0.8 -2.2 6.2 -0.3 5.7 -1.4 7.9 -3.1 6.2z"/>
  <path d="M54 128.2 c0 -0.7 -1.3 -1.2 -3 -1.2 -3.8 0 -4.1 -3.2 -0.5 -4.8 1.4 -0.6 2.5 -1.6 2.5 -2.2 0 -0.5 1.1 -1 2.4 -1 2.3 0 2.4 0.3 1.9 3.8 -0.5 3.5 -3.3 8.1 -3.3 5.4z"/>
 </g>
 <g fill="#a7a8a5">
  <path d="M11.7 151.4 c-0.7 -0.8 -1 -10.4 -0.3 -10.4 0.2 0 1.1 -0.3 2 -0.6 1.1 -0.4 1.6 -0.1 1.6 1 0 1.4 1.6 1.6 11 1.6 10.3 0 11 0.1 11 2 0 1.8 -0.7 2 -8.7 2.2 l-8.8 0.2 8 0.6 8 0.6 -8.7 0.2 c-4.7 0.1 -8.8 0.6 -9 1.1 -0.4 1.3 -5.2 2.4 -6.1 1.5z"/>
  <path d="M40 145.5 l0 -2.5 14.5 0 c11.8 0 14.5 0.3 14.5 1.4 0 2.1 -8.4 3.6 -19.5 3.6 -9.5 0 -9.5 0 -9.5 -2.5z"/>
  <path d="M76.8 146.3 c-1 -0.2 -1.8 -1.1 -1.8 -1.9 0 -1 1.3 -1.4 5 -1.4 4.3 0 5 0.3 5 2 0 1.6 -0.6 2 -3.2 1.9 -1.8 -0.1 -4.1 -0.3 -5 -0.6z"/>
 </g>
 <g fill="#e1ac76">
  <path d="M22.7 148.3 c2.4 -0.2 6.2 -0.2 8.6 0 2.3 0.2 0.4 0.4 -4.3 0.4 -4.7 0 -6.6 -0.2 -4.3 -0.4z"/>
  <path d="M37.7 147.4 c-0.6 -0.6 -2.7 -0.8 -14.7 -1.5 -7.1 -0.4 12.7 -1.7 27.8 -1.8 8.2 -0.1 13.2 0.3 13.2 0.9 0 0.6 -4.4 1.1 -10.7 1.2 l-10.8 0.2 9.5 0.6 9.5 0.6 -11.6 0.2 c-6.4 0.1 -11.8 -0.1 -12.2 -0.4z"/>
  <path d="M8.8 134.3 c-1.6 -0.3 -2.8 -1.1 -2.8 -1.9 0 -2.3 6.4 -1.4 6.8 0.9 0.2 0.9 0 1.6 -0.5 1.6 -0.4 -0.1 -2 -0.4 -3.5 -0.6z"/>
  <path d="M54 84.3 c0 -9.1 0.7 -12.3 2.6 -12.3 1.1 0 1.4 2.2 1.4 10 0 9.3 -0.1 10 -2 10 -1.8 0 -2 -0.7 -2 -7.7z"/>
  <path d="M44 84.6 c0 -6.4 1.3 -7.3 2.8 -1.8 0.7 2.5 1 3 1.1 1.5 0.1 -1.3 0.6 -2.3 1.2 -2.3 0.6 0 0.9 1.6 0.7 3.8 -0.3 3.2 -0.7 3.7 -3 4 -2.8 0.3 -2.8 0.2 -2.8 -5.2z"/>
  <path d="M83.4 80.5 c-0.8 -2.1 -0.8 -4 0 -6.5 l1 -3.5 0.4 3.3 c0.2 1.7 0.2 4.7 0 6.5 l-0.3 3.2 -1.1 -3z"/>
  <path d="M43.6 69.8 c-0.3 -1.3 -0.6 -5.7 -0.6 -9.9 0 -9.7 -0.8 -13.6 -2.9 -14.3 -0.9 -0.3 -2.2 -0.9 -2.8 -1.2 -1 -0.4 -1.3 2.5 -1.3 13 0 8.4 -0.4 13.6 -1 13.6 -0.6 0 -1 -5.5 -1 -14.4 0 -11.5 0.3 -14.8 1.5 -16 0.8 -0.8 1.5 -1.9 1.5 -2.5 0 -0.6 0.7 -1.1 1.5 -1.1 0.9 0 1.5 0.9 1.5 2.3 0 1.7 0.9 2.5 3.5 3.3 1.9 0.6 3.5 0.7 3.5 0.3 0 -0.5 0.9 -0.9 2 -0.9 1.1 0 2 -0.6 2 -1.4 0 -0.8 0.5 -1.6 1.1 -1.8 0.8 -0.3 1.1 -3.1 1 -8.1 -0.2 -10.5 0.6 -14.7 3 -14.7 1.7 0 1.8 1.4 1.9 26 0 21.5 -0.2 26 -1.4 26 -1.9 0 -2.6 -4.5 -2.6 -16.1 0 -6.5 -0.4 -9.9 -1.1 -9.9 -0.6 0 -1.3 0.9 -1.6 2 -0.3 1.1 -1.6 2.3 -3 2.6 -1.7 0.5 -2.3 1.2 -2.1 2.8 0.2 1.3 0.9 2 2 1.8 2.4 -0.4 3 2.7 1.4 7.3 -1.5 4 -2.1 3.7 -2.9 -1.5 -0.2 -1.4 -0.5 1.4 -0.6 6.3 -0.1 8.3 -1.2 11.2 -2.5 6.5z"/>
  <path d="M41.8 26.6 c0.3 -7.1 0.5 -7.4 3 -7.9 3.8 -0.8 4.6 0.5 4.7 7.6 0.1 6.7 -0.5 7.7 -5 7.7 l-3 0 0.3 -7.4z m4.2 -0.2 c0 -1.4 -0.4 -2.3 -0.9 -2 -0.5 0.3 -0.7 1.5 -0.4 2.6 0.7 2.8 1.3 2.5 1.3 -0.6z"/>
 </g>
 <g fill="#8fccc6">
  <path d="M44 111 c0 -16.2 0.2 -19 1.5 -19 1.2 0 1.5 2 1.7 11.8 0.1 11.3 0.1 11.4 0.7 4 0.8 -8.5 1.6 -10.2 3.6 -7.5 1.1 1.6 1.3 1.6 1.9 0.1 0.3 -0.8 0.6 -3.5 0.6 -5.9 0 -5.3 0.8 -7.5 2.6 -7.5 1.1 0 1.4 3.1 1.4 16.9 0 16.5 0 16.9 -2.5 19.5 -1.3 1.4 -3.8 2.9 -5.5 3.2 -1.6 0.4 -3 1.3 -3 2 0 0.8 -0.7 1.4 -1.5 1.4 -1.3 0 -1.5 -2.8 -1.5 -19z"/>
 </g>
 <g fill="#eabc85">
  <path d="M13 150 c0 -1.7 0.6 -2 4.8 -1.9 2.6 0.1 3.7 0.4 2.5 0.6 -1.3 0.2 -2.3 1.1 -2.3 1.9 0 0.8 -1 1.4 -2.5 1.4 -1.8 0 -2.5 -0.5 -2.5 -2z"/>
  <path d="M13 145.8 c0 -0.5 2.8 -0.7 6.3 -0.7 6.7 0.1 6 0.6 -1.5 1.1 -2.7 0.2 -4.8 0 -4.8 -0.4z"/>
  <path d="M54.9 90.8 c-0.3 -7.9 0.4 -25.4 1.1 -25.8 0.5 -0.3 1.1 -3.2 1.3 -6.5 0.2 -3.3 0.4 2.9 0.5 13.8 0.2 16.9 0 19.7 -1.3 19.7 -0.8 0 -1.5 -0.6 -1.6 -1.2z"/>
  <path d="M43.6 71.3 c-0.9 -10.6 -0.8 -12.3 0.7 -12.3 0.8 0 1.3 2.8 1.5 10 0.1 5.5 -0.2 10 -0.6 10 -0.5 0 -1.2 -3.4 -1.6 -7.7z"/>
  <path d="M48.2 61.8 c-1.4 -1.4 -1.6 -7.7 -0.2 -9.8 1.6 -2.4 3 0.6 3 6.3 0 4.8 -0.7 5.6 -2.8 3.5z"/>
  <path d="M44 53.5 c0 -1.9 0.5 -3.5 1 -3.5 0.6 0 1 1.6 1 3.5 0 1.9 -0.4 3.5 -1 3.5 -0.5 0 -1 -1.6 -1 -3.5z"/>
  <path d="M57.1 43.5 c-0.1 -2.2 -0.5 -3.4 -0.8 -2.7 -0.2 0.6 -1.3 1.2 -2.3 1.2 -1.1 0 -2.3 0.7 -2.8 1.6 -0.7 1.3 -1.1 0.7 -1.6 -2.5 -0.6 -3.9 -2.6 -5.5 -4.1 -3.1 -1 1.7 -7.5 1.2 -7.5 -0.5 0 -0.8 0.6 -1.5 1.4 -1.5 0.8 0 1.7 -1.4 2.1 -3 0.4 -1.7 1.2 -3 1.8 -2.9 3.6 0.4 3.9 -0.1 3.3 -4.5 -0.5 -2.9 -0.3 -4.7 0.4 -5.1 1.9 -1.2 2.5 0.4 2.6 7.2 0.1 5.9 1.1 8.2 3.4 8.3 0.3 0 0.4 -4.5 0.3 -10 -0.3 -9.3 -0.2 -10 1.6 -10 1.7 0 2 1 2.6 7.3 0.3 3.9 0.5 11 0.3 15.7 -0.2 4.7 -0.5 6.7 -0.7 4.5z m-0.4 -11.7 c-0.2 -1.3 -0.4 -0.5 -0.4 1.7 -0.1 2.2 0.1 3.2 0.4 2.3 0.2 -1 0.2 -2.8 0 -4z"/>
  <path d="M48.7 12.3 c-1.3 -1.2 -0.7 -4.1 0.9 -4.7 3.3 -1.3 4.4 -0.6 4.4 2.4 0 2.5 -0.4 3 -2.3 3 -1.3 0 -2.7 -0.3 -3 -0.7z"/>
 </g>
 <g fill="#b4c0ba">
  <path d="M26.7 146.2 c-0.9 -0.2 -1.7 -1 -1.7 -1.8 0 -1.1 2.1 -1.4 10.5 -1.4 8.5 0 10.5 0.3 10.5 1.5 0 0.8 -1.3 1.6 -3.2 2 -3.2 0.5 -12.6 0.3 -16.1 -0.3z"/>
  <path d="M8.8 134.2 c-3.5 -0.4 -3.6 -2 -0.3 -2.8 2.9 -0.7 3.8 -0.2 3.3 1.8 -0.2 0.8 -1.4 1.2 -3 1z"/>
  <path d="M56 113.1 c0 -3.8 -0.3 -7.6 -0.6 -8.5 -0.4 -1.1 -0.1 -1.6 1 -1.6 1.3 0 1.6 1.4 1.6 8.5 0 5 -0.4 8.5 -1 8.5 -0.6 0 -1 -3 -1 -6.9z"/>
  <path d="M55 95 c0 -2.7 0 -5.3 0 -5.7 0 -0.4 0.6 -0.8 1.5 -0.9 1.2 -0.2 1.5 1 1.5 5.7 0 4.6 -0.3 5.9 -1.5 5.9 -1.1 0 -1.5 -1.2 -1.5 -5z"/>
 </g>
 <g fill="#e9c79d">
  <path d="M11 134 c0 -0.5 -0.7 -1 -1.5 -1 -0.8 0 -1.5 -0.4 -1.5 -1 0 -0.5 0.9 -1 2 -1 1.3 0 2 0.7 2 2 0 1.1 -0.2 2 -0.5 2 -0.3 0 -0.5 -0.4 -0.5 -1z"/>
  <path d="M54.9 91.8 c-0.4 -1.5 -0.2 -3.3 0.2 -4 0.7 -1 0.9 -1 1 0.2 0.1 0.8 0.5 -0.3 0.9 -2.5 l0.7 -4 0.2 4.8 c0 2.6 -0.3 4.7 -0.8 4.7 -0.5 0 -1.1 0.8 -1.3 1.8 -0.3 1.2 -0.6 0.9 -0.9 -1z"/>
  <path d="M44 81.8 c0 -5.7 0.3 -7.8 1 -6.8 1.3 2 1.3 15 0 15 -0.6 0 -1 -3.4 -1 -8.2z"/>
  <path d="M43 54.1 c0 -7.8 -0.1 -8.1 -2.5 -8.7 -1.4 -0.3 -2.9 -1.4 -3.4 -2.3 -1.2 -2.4 0.2 -6.5 2.4 -7 2.2 -0.4 5.5 -3.4 5.5 -5.1 0 -2.1 3.1 -0.9 4 1.5 0.5 1.4 1.4 2.5 1.9 2.5 0.5 0 1.4 1.4 2 3 1.2 3.5 -0.1 4.6 -4.4 3.8 -1.4 -0.3 -2.5 -0.1 -2.5 0.3 0 0.5 1.1 0.9 2.5 0.9 1.4 0 2.5 0.4 2.5 0.8 0 1.4 -2.3 3.2 -4 3.2 -1.4 0 -1.6 1.2 -1.6 7.2 0.1 4.8 -0.3 7.2 -1.1 7.5 -1 0.4 -1.3 -1.6 -1.3 -7.6z"/>
  <path d="M47.7 61.3 c-0.9 -0.8 -0.9 -5 -0.1 -8 1.1 -4.1 2.4 -2.4 2.4 3.2 0 5.1 -0.7 6.5 -2.3 4.8z"/>
  <path d="M50.8 10 c-0.4 -2.7 -0.2 -3 2.3 -3 2.6 0 3.9 1.5 3.9 4.6 0 0.9 -1.1 1.4 -2.9 1.4 -2.4 0 -2.9 -0.5 -3.3 -3z"/>
 </g>
 <g fill="#bbdbd4">
  <path d="M56.1 116.5 c0 -2.2 -0.3 -9.2 -0.6 -15.5 -0.5 -11.4 -0.5 -11.5 1 -6.8 1.2 3.8 1.4 6.7 0.7 15.5 -0.5 5.9 -1 9 -1.1 6.8z"/>
  <path d="M44 104.5 c0 -7 0.4 -11.5 1 -11.5 0.6 0 1 4.5 1 11.5 0 7 -0.4 11.5 -1 11.5 -0.6 0 -1 -4.5 -1 -11.5z"/>
  <path d="M32.2 101.8 c-2.1 -2.1 -1.3 -2.8 3.7 -2.8 4.3 0 5 -0.3 5.4 -2.2 0.4 -2.1 0.4 -2.1 0.6 0.3 0.2 4.7 -6.5 7.9 -9.7 4.7z"/>
  <path d="M30 97.2 c0 -1.3 3 -5.2 4.1 -5.2 0.5 0 0.9 1.4 0.9 3 0 2.5 -0.4 3 -2.5 3 -1.4 0 -2.5 -0.3 -2.5 -0.8z"/>
 </g>
 <g fill="#e9d4bb">
  <path d="M12.2 142.3 c0.3 -1.7 2.5 -1.8 26.1 -2.1 25.2 -0.2 25.7 -0.2 25.7 1.8 0 2 -0.6 2 -26.1 2 -24.3 0 -26 -0.1 -25.7 -1.7z"/>
  <path d="M43.1 55.8 c0.2 -9.6 -0.4 -16.8 -1.3 -16.8 -0.4 0 -1.4 1.1 -2 2.5 -1.2 2.7 -2.4 3.2 -3 1.3 -0.6 -1.7 1.5 -5.8 2.9 -5.8 0.7 0 1.8 -0.9 2.5 -2 0.7 -1.1 1.8 -2 2.5 -2 0.7 0 1.3 -0.4 1.3 -1 0 -0.5 0.7 -1 1.5 -1 0.9 0 1.5 0.9 1.5 2.5 0 1.9 -0.5 2.5 -2.2 2.6 -2.1 0.1 -2.1 0.2 -0.3 0.6 1.1 0.3 2.6 1 3.3 1.6 1 0.8 1.6 0.7 2.1 -0.2 0.6 -0.9 1 -0.8 1.3 0.6 0.6 2.3 -2.9 7 -5.7 7.5 -1.7 0.3 -2 1.2 -2.3 7.6 -0.3 8.2 -2.2 10 -2.1 2z"/>
  <path d="M48 53.5 c0 -1.4 0.5 -2.5 1 -2.5 0.6 0 1 1.1 1 2.5 0 1.4 -0.4 2.5 -1 2.5 -0.5 0 -1 -1.1 -1 -2.5z"/>
  <path d="M51.8 8.9 c-1.7 -1.8 -1.7 -1.9 1.2 -1.9 2.3 0 3 0.4 3 2 0 2.5 -1.9 2.4 -4.2 -0.1z"/>
 </g>
 <g fill="#d4e3e2">
  <path d="M44 121.5 c0 -5 0.4 -8.5 1 -8.5 0.6 0 1 3.5 1 8.5 0 5 -0.4 8.5 -1 8.5 -0.6 0 -1 -3.5 -1 -8.5z"/>
  <path d="M31 100.1 c-1.4 -2.8 -1.3 -3.5 1.4 -6.4 2.6 -2.8 4.5 -2.8 7.9 0.1 2 1.7 2.2 5.3 0.5 7 -2 2 -8.6 1.5 -9.8 -0.7z"/>
  <path d="M44 94 c0 -1.1 0.5 -2 1 -2 0.6 0 1 0.9 1 2 0 1.1 -0.4 2 -1 2 -0.5 0 -1 -0.9 -1 -2z"/>
 </g>
 <g fill="#f2e9d7">
  <path d="M11 134.1 c0 -0.5 -0.8 -1.2 -1.7 -1.4 -1.4 -0.4 -1.2 -0.5 0.5 -0.6 1.3 -0.1 2.2 0.5 2.2 1.4 0 0.8 -0.2 1.5 -0.5 1.5 -0.3 0 -0.5 -0.4 -0.5 -0.9z"/>
  <path d="M48 57.5 c0 -2.5 0.5 -4.5 1 -4.5 0.6 0 1 2 1 4.5 0 2.5 -0.4 4.5 -1 4.5 -0.5 0 -1 -2 -1 -4.5z"/>
  <path d="M44.2 54.5 c-0.1 -3.9 -0.7 -7.6 -1.4 -8.3 -0.9 -0.9 -0.9 -1.8 0 -3.7 1.6 -3.4 1.5 -4.5 -0.2 -4.5 -0.8 0 -2 1.4 -2.8 3 -1.4 3.3 -2.3 3.7 -3.2 1.5 -0.3 -0.8 -0.1 -1.5 0.4 -1.5 0.6 0 1 -0.9 1 -2 0 -1.1 0.7 -2 1.5 -2 0.8 0 2 -0.9 2.7 -2 0.7 -1.1 1.8 -2 2.5 -2 0.7 0 1.3 -0.4 1.3 -1 0 -0.5 0.7 -1 1.5 -1 2.3 0 1.8 2.8 -0.7 4.2 l-2.3 1.2 2.4 0.6 c3.2 0.7 4.5 3.1 3.7 6.3 -0.5 2 -1.3 2.7 -3.1 2.7 -2.3 0 -2.4 0.3 -2.8 7.8 l-0.3 7.7 -0.2 -7z"/>
  <path d="M53.1 10.8 c-1.1 -2.9 -0.1 -4 3.5 -3.6 2.3 0.2 3 0.9 3.2 3.1 0.3 2.4 0 2.7 -2.8 2.7 -2.3 0 -3.3 -0.6 -3.9 -2.2z"/>
 </g>
 <g fill="#e9ecf0">
  <path d="M12 146.5 l0 -5.5 18.3 0 c10.1 0 26.6 -0.3 36.5 -0.7 l18.2 -0.6 0 3.1 0 3.2 -35.4 0 c-31.6 0 -41 0.6 -34.6 2.3 3 0.8 2.5 3.7 -0.5 3.7 -2.4 0 -2.5 -0.3 -2.5 -5.5z"/>
 </g>
<g opacity="0.5" transform="rotate(-45, 42.5, 76.0)">
  <text x="50%" y="50%" font-size="20" text-anchor="middle" fill="lightgray" dominant-baseline="middle">
    generated by vectorizer.io
  </text>
</g>
</svg>