<svg xmlns="http://www.w3.org/2000/svg" version="1.1" xmlns:xlink="http://www.w3.org/1999/xlink"
    xmlns:svgjs="http://svgjs.dev/svgjs" viewBox="0 0 800 800">
    <g fill="none" stroke-width="3" stroke="hsl(335, 77%, 50%)" stroke-linecap="round">
        <line x1="118" y1="400" x2="682" y2="400" transform="rotate(0, 400, 400)" opacity="0.41"></line>
        <line x1="222.5" y1="400" x2="577.5" y2="400" transform="rotate(4, 400, 400)" opacity="0.12"></line>
        <line x1="716.5" y1="400" x2="83.5" y2="400" transform="rotate(8, 400, 400)" opacity="0.92"></line>
        <line x1="47.5" y1="400" x2="752.5" y2="400" transform="rotate(12, 400, 400)" opacity="0.72"></line>
        <line x1="408.5" y1="400" x2="391.5" y2="400" transform="rotate(16, 400, 400)" opacity="0.68"></line>
        <line x1="289.5" y1="400" x2="510.5" y2="400" transform="rotate(20, 400, 400)" opacity="0.57"></line>
        <line x1="360" y1="400" x2="440" y2="400" transform="rotate(24, 400, 400)" opacity="0.12"></line>
        <line x1="584.5" y1="400" x2="215.5" y2="400" transform="rotate(28, 400, 400)" opacity="0.33"></line>
        <line x1="227" y1="400" x2="573" y2="400" transform="rotate(32, 400, 400)" opacity="0.17"></line>
        <line x1="648" y1="400" x2="152" y2="400" transform="rotate(36, 400, 400)" opacity="0.17"></line>
        <line x1="615.5" y1="400" x2="184.5" y2="400" transform="rotate(40, 400, 400)" opacity="0.61"></line>
        <line x1="315.5" y1="400" x2="484.5" y2="400" transform="rotate(44, 400, 400)" opacity="0.09"></line>
        <line x1="238" y1="400" x2="562" y2="400" transform="rotate(48, 400, 400)" opacity="0.85"></line>
        <line x1="25" y1="400" x2="775" y2="400" transform="rotate(52, 400, 400)" opacity="0.11"></line>
        <line x1="414" y1="400" x2="386" y2="400" transform="rotate(56, 400, 400)" opacity="0.91"></line>
        <line x1="507.5" y1="400" x2="292.5" y2="400" transform="rotate(60, 400, 400)" opacity="0.26"></line>
        <line x1="531" y1="400" x2="269" y2="400" transform="rotate(64, 400, 400)" opacity="1.00"></line>
        <line x1="560" y1="400" x2="240" y2="400" transform="rotate(68, 400, 400)" opacity="0.65"></line>
        <line x1="79.5" y1="400" x2="720.5" y2="400" transform="rotate(72, 400, 400)" opacity="0.35"></line>
        <line x1="370.5" y1="400" x2="429.5" y2="400" transform="rotate(76, 400, 400)" opacity="0.68"></line>
        <line x1="320.5" y1="400" x2="479.5" y2="400" transform="rotate(80, 400, 400)" opacity="0.20"></line>
        <line x1="542.5" y1="400" x2="257.5" y2="400" transform="rotate(84, 400, 400)" opacity="0.14"></line>
        <line x1="437" y1="400" x2="363" y2="400" transform="rotate(88, 400, 400)" opacity="0.28"></line>
        <line x1="675" y1="400" x2="125" y2="400" transform="rotate(92, 400, 400)" opacity="0.19"></line>
        <line x1="707" y1="400" x2="93" y2="400" transform="rotate(96, 400, 400)" opacity="0.57"></line>
        <line x1="288.5" y1="400" x2="511.5" y2="400" transform="rotate(100, 400, 400)" opacity="0.47"></line>
        <line x1="125.5" y1="400" x2="674.5" y2="400" transform="rotate(104, 400, 400)" opacity="0.21"></line>
        <line x1="251" y1="400" x2="549" y2="400" transform="rotate(108, 400, 400)" opacity="0.78"></line>
        <line x1="152" y1="400" x2="648" y2="400" transform="rotate(112, 400, 400)" opacity="0.77"></line>
        <line x1="376.5" y1="400" x2="423.5" y2="400" transform="rotate(116, 400, 400)" opacity="0.87"></line>
        <line x1="200" y1="400" x2="600" y2="400" transform="rotate(120, 400, 400)" opacity="0.82"></line>
        <line x1="588.5" y1="400" x2="211.5" y2="400" transform="rotate(124, 400, 400)" opacity="0.57"></line>
        <line x1="67.5" y1="400" x2="732.5" y2="400" transform="rotate(128, 400, 400)" opacity="0.18"></line>
        <line x1="565" y1="400" x2="235" y2="400" transform="rotate(132, 400, 400)" opacity="0.21"></line>
        <line x1="364.5" y1="400" x2="435.5" y2="400" transform="rotate(136, 400, 400)" opacity="0.92"></line>
        <line x1="142.5" y1="400" x2="657.5" y2="400" transform="rotate(140, 400, 400)" opacity="0.38"></line>
        <line x1="649.5" y1="400" x2="150.5" y2="400" transform="rotate(144, 400, 400)" opacity="0.30"></line>
        <line x1="522" y1="400" x2="278" y2="400" transform="rotate(148, 400, 400)" opacity="0.94"></line>
        <line x1="102.5" y1="400" x2="697.5" y2="400" transform="rotate(152, 400, 400)" opacity="0.85"></line>
        <line x1="436" y1="400" x2="364" y2="400" transform="rotate(156, 400, 400)" opacity="0.49"></line>
        <line x1="312.5" y1="400" x2="487.5" y2="400" transform="rotate(160, 400, 400)" opacity="0.58"></line>
        <line x1="110.5" y1="400" x2="689.5" y2="400" transform="rotate(164, 400, 400)" opacity="0.71"></line>
        <line x1="306" y1="400" x2="494" y2="400" transform="rotate(168, 400, 400)" opacity="0.44"></line>
        <line x1="676" y1="400" x2="124" y2="400" transform="rotate(172, 400, 400)" opacity="0.09"></line>
        <line x1="397" y1="400" x2="403" y2="400" transform="rotate(176, 400, 400)" opacity="0.89"></line>
        <line x1="78.5" y1="400" x2="721.5" y2="400" transform="rotate(180, 400, 400)" opacity="0.72"></line>
        <line x1="172" y1="400" x2="628" y2="400" transform="rotate(184, 400, 400)" opacity="0.28"></line>
        <line x1="592" y1="400" x2="208" y2="400" transform="rotate(188, 400, 400)" opacity="0.78"></line>
        <line x1="185.5" y1="400" x2="614.5" y2="400" transform="rotate(192, 400, 400)" opacity="0.65"></line>
        <line x1="80" y1="400" x2="720" y2="400" transform="rotate(196, 400, 400)" opacity="0.59"></line>
        <line x1="591.5" y1="400" x2="208.5" y2="400" transform="rotate(200, 400, 400)" opacity="0.87"></line>
        <line x1="133.5" y1="400" x2="666.5" y2="400" transform="rotate(204, 400, 400)" opacity="0.83"></line>
        <line x1="497" y1="400" x2="303" y2="400" transform="rotate(208, 400, 400)" opacity="0.40"></line>
        <line x1="300.5" y1="400" x2="499.5" y2="400" transform="rotate(212, 400, 400)" opacity="0.81"></line>
        <line x1="241" y1="400" x2="559" y2="400" transform="rotate(216, 400, 400)" opacity="0.26"></line>
        <line x1="225" y1="400" x2="575" y2="400" transform="rotate(220, 400, 400)" opacity="0.29"></line>
        <line x1="412" y1="400" x2="388" y2="400" transform="rotate(224, 400, 400)" opacity="0.94"></line>
        <line x1="546" y1="400" x2="254" y2="400" transform="rotate(228, 400, 400)" opacity="0.35"></line>
        <line x1="293.5" y1="400" x2="506.5" y2="400" transform="rotate(232, 400, 400)" opacity="0.85"></line>
        <line x1="351" y1="400" x2="449" y2="400" transform="rotate(236, 400, 400)" opacity="0.96"></line>
        <line x1="140.5" y1="400" x2="659.5" y2="400" transform="rotate(240, 400, 400)" opacity="0.97"></line>
        <line x1="690.5" y1="400" x2="109.5" y2="400" transform="rotate(244, 400, 400)" opacity="0.65"></line>
        <line x1="78.5" y1="400" x2="721.5" y2="400" transform="rotate(248, 400, 400)" opacity="0.55"></line>
        <line x1="255.5" y1="400" x2="544.5" y2="400" transform="rotate(252, 400, 400)" opacity="0.34"></line>
        <line x1="123.5" y1="400" x2="676.5" y2="400" transform="rotate(256, 400, 400)" opacity="0.44"></line>
        <line x1="295" y1="400" x2="505" y2="400" transform="rotate(260, 400, 400)" opacity="0.22"></line>
        <line x1="741.5" y1="400" x2="58.5" y2="400" transform="rotate(264, 400, 400)" opacity="0.41"></line>
        <line x1="402" y1="400" x2="398" y2="400" transform="rotate(268, 400, 400)" opacity="0.95"></line>
        <line x1="79" y1="400" x2="721" y2="400" transform="rotate(272, 400, 400)" opacity="0.40"></line>
        <line x1="160.5" y1="400" x2="639.5" y2="400" transform="rotate(276, 400, 400)" opacity="0.91"></line>
        <line x1="352.5" y1="400" x2="447.5" y2="400" transform="rotate(280, 400, 400)" opacity="0.80"></line>
        <line x1="422.5" y1="400" x2="377.5" y2="400" transform="rotate(284, 400, 400)" opacity="0.55"></line>
        <line x1="650.5" y1="400" x2="149.5" y2="400" transform="rotate(288, 400, 400)" opacity="0.96"></line>
        <line x1="297.5" y1="400" x2="502.5" y2="400" transform="rotate(292, 400, 400)" opacity="0.56"></line>
        <line x1="175.5" y1="400" x2="624.5" y2="400" transform="rotate(296, 400, 400)" opacity="0.55"></line>
        <line x1="729.5" y1="400" x2="70.5" y2="400" transform="rotate(300, 400, 400)" opacity="0.10"></line>
        <line x1="652.5" y1="400" x2="147.5" y2="400" transform="rotate(304, 400, 400)" opacity="0.74"></line>
        <line x1="138.5" y1="400" x2="661.5" y2="400" transform="rotate(308, 400, 400)" opacity="0.08"></line>
        <line x1="698" y1="400" x2="102" y2="400" transform="rotate(312, 400, 400)" opacity="0.73"></line>
        <line x1="38" y1="400" x2="762" y2="400" transform="rotate(316, 400, 400)" opacity="0.23"></line>
        <line x1="382" y1="400" x2="418" y2="400" transform="rotate(320, 400, 400)" opacity="0.26"></line>
        <line x1="154" y1="400" x2="646" y2="400" transform="rotate(324, 400, 400)" opacity="0.17"></line>
        <line x1="104" y1="400" x2="696" y2="400" transform="rotate(328, 400, 400)" opacity="0.78"></line>
        <line x1="724" y1="400" x2="76" y2="400" transform="rotate(332, 400, 400)" opacity="0.20"></line>
        <line x1="113.5" y1="400" x2="686.5" y2="400" transform="rotate(336, 400, 400)" opacity="0.43"></line>
        <line x1="354" y1="400" x2="446" y2="400" transform="rotate(340, 400, 400)" opacity="0.80"></line>
        <line x1="287" y1="400" x2="513" y2="400" transform="rotate(344, 400, 400)" opacity="0.46"></line>
        <line x1="327" y1="400" x2="473" y2="400" transform="rotate(348, 400, 400)" opacity="0.99"></line>
    </g>
</svg>