<?xml version="1.0" encoding="iso-8859-1"?>
<!-- Uploaded to: SVG Repo, www.svgrepo.com, Generator: SVG Repo Mixer Tools -->
<svg fill="#000000" height="800px" width="800px" version="1.1" id="Capa_1" xmlns="http://www.w3.org/2000/svg" xmlns:xlink="http://www.w3.org/1999/xlink" 
	 viewBox="0 0 482.701 482.701" xml:space="preserve">
<g>
	<g>
		<path d="M465.1,255.863H279.9c-9.8,0-17.7,8-17.7,17.7v185.1c0,9.8,8,17.7,17.7,17.7H465c9.8,0,17.7-8,17.7-17.7v-185
			C482.8,263.863,474.8,255.863,465.1,255.863z M458.8,452.463H286.2v-172.6h172.6V452.463z"/>
		<path d="M302.6,105.163l57.9-57.9v169.7c0,6.6,5.4,12,12,12s12-5.4,12-12v-169.7l57.9,57.9c2.3,2.3,5.4,3.5,8.5,3.5
			s6.1-1.2,8.5-3.5c4.7-4.7,4.7-12.3,0-17L381,9.763c-4.7-4.7-12.3-4.7-17,0l-78.4,78.4c-4.7,4.7-4.7,12.3,0,17
			C290.3,109.863,297.9,109.863,302.6,105.163z"/>
		<path d="M208.6,202.863c-3.2,0-6.3,1.3-8.5,3.5c-2.2,2.2-3.5,5.3-3.5,8.5c0,3.1,1.3,6.3,3.5,8.5c2.2,2.2,5.3,3.5,8.5,3.5
			c3.2,0,6.3-1.3,8.5-3.5c2.2-2.2,3.5-5.3,3.5-8.5s-1.3-6.3-3.5-8.5C214.8,204.163,211.7,202.863,208.6,202.863z"/>
		<path d="M110.3,226.863c6.6,0,12-5.4,12-12s-5.4-12-12-12c-6.6,0-12,5.4-12,12C98.3,221.463,103.7,226.863,110.3,226.863z"/>
		<path d="M159.4,226.863c6.6,0,12-5.4,12-12s-5.4-12-12-12s-12,5.4-12,12S152.8,226.863,159.4,226.863z"/>
		<path d="M61.2,226.863c6.6,0,12-5.4,12-12s-5.4-12-12-12s-12,5.4-12,12C49.2,221.463,54.5,226.863,61.2,226.863z"/>
		<path d="M24,214.863c0-3.2-1.3-6.3-3.5-8.5s-5.3-3.5-8.5-3.5s-6.3,1.3-8.5,3.5s-3.5,5.3-3.5,8.5s1.3,6.3,3.5,8.5s5.3,3.5,8.5,3.5
			s6.3-1.3,8.5-3.5C22.7,221.063,24,217.963,24,214.863z"/>
		<path d="M12,79.363c6.6,0,12-5.4,12-12s-5.4-12-12-12s-12,5.4-12,12C0,74.063,5.4,79.363,12,79.363z"/>
		<path d="M12,128.563c6.6,0,12-5.4,12-12c0-6.6-5.4-12-12-12s-12,5.4-12,12C0,123.163,5.4,128.563,12,128.563z"/>
		<path d="M12,177.663c6.6,0,12-5.4,12-12s-5.4-12-12-12s-12,5.4-12,12C0,172.363,5.4,177.663,12,177.663z"/>
		<path d="M12,30.263c3.2,0,6.3-1.3,8.5-3.5c2.2-2.2,3.5-5.3,3.5-8.5s-1.3-6.3-3.5-8.5s-5.3-3.5-8.5-3.5s-6.3,1.3-8.5,3.5
			s-3.5,5.3-3.5,8.5s1.3,6.3,3.5,8.5C5.8,28.963,8.9,30.263,12,30.263z"/>
		<path d="M110.3,30.263c6.6,0,12-5.4,12-12s-5.4-12-12-12c-6.6,0-12,5.4-12,12C98.3,24.863,103.7,30.263,110.3,30.263z"/>
		<path d="M61.2,30.263c6.6,0,12-5.4,12-12s-5.4-12-12-12s-12,5.4-12,12C49.2,24.863,54.5,30.263,61.2,30.263z"/>
		<path d="M159.4,30.263c6.6,0,12-5.4,12-12s-5.4-12-12-12s-12,5.4-12,12S152.8,30.263,159.4,30.263z"/>
		<path d="M208.6,6.263c-3.2,0-6.3,1.3-8.5,3.5c-2.2,2.2-3.5,5.3-3.5,8.5s1.3,6.3,3.5,8.5c2.2,2.2,5.3,3.5,8.5,3.5
			c3.2,0,6.3-1.3,8.5-3.5c2.2-2.2,3.5-5.3,3.5-8.5s-1.3-6.3-3.5-8.5C214.8,7.563,211.7,6.263,208.6,6.263z"/>
		<path d="M208.6,104.563c-6.6,0-12,5.4-12,12c0,6.6,5.4,12,12,12s12-5.4,12-12C220.6,109.963,215.2,104.563,208.6,104.563z"/>
		<path d="M208.6,55.363c-6.6,0-12,5.4-12,12s5.4,12,12,12s12-5.4,12-12S215.2,55.363,208.6,55.363z"/>
		<path d="M208.6,153.663c-6.6,0-12,5.4-12,12s5.4,12,12,12s12-5.4,12-12S215.2,153.663,208.6,153.663z"/>
		<path d="M180.2,377.563l-57.9,57.9v-169.6c0-6.6-5.4-12-12-12s-12,5.4-12,12v169.7l-57.9-58c-4.7-4.7-12.3-4.7-17,0
			s-4.7,12.3,0,17l78.4,78.4c2.3,2.3,5.4,3.5,8.5,3.5s6.1-1.2,8.5-3.5l78.4-78.4c4.7-4.7,4.7-12.3,0-17
			C192.5,372.863,184.9,372.863,180.2,377.563z"/>
	</g>
</g>
</svg>