<?xml version="1.0" encoding="iso-8859-1"?>
<!-- Uploaded to: SVG Repo, www.svgrepo.com, Generator: SVG Repo Mixer Tools -->
<svg fill="#000000" height="800px" width="800px" version="1.1" id="Capa_1" xmlns="http://www.w3.org/2000/svg" xmlns:xlink="http://www.w3.org/1999/xlink" 
	 viewBox="0 0 486 486" xml:space="preserve">
<g>
	<g>
		<path d="M251.55,87.8c-4.7-4.7-12.3-4.7-17,0l-89.3,89.3c-4.7,4.7-4.7,12.3,0,17s12.3,4.7,17,0l68.8-68.8V474c0,6.6,5.4,12,12,12
			s12-5.4,12-12V125.2l68.8,68.8c2.3,2.3,5.4,3.5,8.5,3.5s6.1-1.2,8.5-3.5c4.7-4.7,4.7-12.3,0-17L251.55,87.8z"/>
		<path d="M40.35,101.1c-3.2,0-6.3,1.3-8.5,3.5s-3.5,5.3-3.5,8.5c0,3.1,1.3,6.3,3.5,8.5c2.2,2.2,5.3,3.5,8.5,3.5
			c3.2,0,6.3-1.3,8.5-3.5c2.2-2.2,3.5-5.3,3.5-8.5s-1.3-6.3-3.5-8.5C46.65,102.4,43.55,101.1,40.35,101.1z"/>
		<path d="M40.35,50.5c-6.6,0-12,5.4-12,12s5.4,12,12,12s12-5.4,12-12S47.05,50.5,40.35,50.5z"/>
		<path d="M40.35,0c-3.2,0-6.3,1.3-8.5,3.5s-3.5,5.3-3.5,8.5s1.3,6.3,3.5,8.5s5.3,3.5,8.5,3.5c3.2,0,6.3-1.3,8.5-3.5
			c2.2-2.2,3.5-5.3,3.5-8.5s-1.3-6.3-3.5-8.5C46.65,1.3,43.55,0,40.35,0z"/>
		<path d="M355.65,0c-6.6,0-12,5.4-12,12s5.4,12,12,12s12-5.4,12-12S362.25,0,355.65,0z"/>
		<path d="M400.65,0c-6.6,0-12,5.4-12,12s5.4,12,12,12s12-5.4,12-12S407.25,0,400.65,0z"/>
		<path d="M220.55,24c6.6,0,12-5.4,12-12s-5.4-12-12-12s-12,5.4-12,12S213.95,24,220.55,24z"/>
		<path d="M310.55,24c6.6,0,12-5.4,12-12s-5.4-12-12-12s-12,5.4-12,12S303.95,24,310.55,24z"/>
		<path d="M265.55,24c6.6,0,12-5.4,12-12s-5.4-12-12-12s-12,5.4-12,12S258.95,24,265.55,24z"/>
		<path d="M175.45,24c6.6,0,12-5.4,12-12s-5.4-12-12-12s-12,5.4-12,12S168.85,24,175.45,24z"/>
		<path d="M130.45,0c-6.6,0-12,5.4-12,12s5.4,12,12,12c6.6,0,12-5.4,12-12S137.05,0,130.45,0z"/>
		<path d="M85.45,0c-6.6,0-12,5.4-12,12s5.4,12,12,12s12-5.4,12-12S92.05,0,85.45,0z"/>
		<path d="M445.65,24c3.2,0,6.3-1.3,8.5-3.5s3.5-5.3,3.5-8.5s-1.3-6.3-3.5-8.5s-5.3-3.5-8.5-3.5s-6.3,1.3-8.5,3.5s-3.5,5.3-3.5,8.5
			s1.3,6.3,3.5,8.5C439.45,22.7,442.55,24,445.65,24z"/>
		<path d="M445.65,50.5c-6.6,0-12,5.4-12,12s5.4,12,12,12s12-5.4,12-12S452.35,50.5,445.65,50.5z"/>
		<path d="M445.65,101.1c-3.2,0-6.3,1.3-8.5,3.5s-3.5,5.3-3.5,8.5c0,3.2,1.3,6.3,3.5,8.5c2.2,2.2,5.3,3.5,8.5,3.5s6.3-1.3,8.5-3.5
			s3.5-5.3,3.5-8.5s-1.3-6.3-3.5-8.5C451.95,102.4,448.85,101.1,445.65,101.1z"/>
	</g>
</g>
</svg>