<svg viewBox="0 0 512 512" xmlns="http://www.w3.org/2000/svg">
    <clipPath id="box">
        <path d="M0 0h512v512H0z" />
    </clipPath>
    <defs>
        <linearGradient id="skyGradient" gradientTransform="rotate(31)">
            <stop offset="20%" stop-color="hsl(21,100%,20%)" />
            <stop offset="100%" stop-color="hsl(141,100%,20%)" />
            <!-- <stop offset="0%" stop-color="#325a32" /> -->
            <!-- <stop offset="100%" stop-color="#343654" /> -->
        </linearGradient>
        <linearGradient id="cloudGradient" gradientTransform="rotate(20)">
            <stop stop-opacity="0" offset="65%" />
            <stop stop-opacity=".3" offset="75%" />
            <stop stop-opacity="0" offset="86%" />
        </linearGradient>

        <filter id="stars">
            <feTurbulence baseFrequency=".35" seed="4426" />
            <feColorMatrix values="
            0 0 0 9 -4 
            0 0 0 9 -4 
            0 0 0 9 -4 
            0 0 0 0 1" />
        </filter>
        <filter id="clouds" x="-50%" y="-50%" height="200%" width="200%">
            <feGaussianBlur in="sky" stdDeviation="20" result="skyblur" />
            <feTurbulence type="fractalNoise" baseFrequency=".01" numOctaves="5" result="skynoise" seed="4426" />
            <feColorMatrix values="1 0 0 0 0 1 0 0 0 0 1 0 0 0 0 3 -1 -1 0 0" />
            <feComposite operator="in" in2="SourceGraphic" />
        </filter>



        <filter id="glow" x="-100%" y="-100%" width="400%" height="400%" filterUnits="objectBoundingBox"
            primitiveUnits="userSpaceOnUse" color-interpolation-filters="sRGB">
            <feGaussianBlur stdDeviation="17" x="0%" y="0%" width="100%" height="100%" in="SourceGraphic"
                edgeMode="none" result="blur"></feGaussianBlur>
        </filter>

        <filter id="planet">
            <feTurbulence type="fractalNoise" baseFrequency=".01" numOctaves="10" seed="102" />
            <feDisplacementMap in="SourceGraphic" scale="500" />
            <feGaussianBlur stdDeviation="0" />
        </filter>
        <filter id="planetset">
            <feTurbulence type="fractalNoise" baseFrequency=".01" numOctaves="10" seed="89" />
            <feDisplacementMap in="SourceGraphic" scale="500" />
            <feGaussianBlur stdDeviation="0" />
        </filter>
        <mask id="planetmask">
            <circle cx="256" cy="256" r="100" fill="white" />
        </mask>


        <filter id="paper">
            <feTurbulence baseFrequency=".18" type="fractalNoise" numOctaves="1" seed="" result="turb" />
            <feColorMatrix in="turb" result="col" type="matrix" values=".33 .33 .33 0 0 
             .33 .33 .33 0 0 
             .33 .33 .33 0 0 
             0 0 0 1 0" />
            <feComponentTransfer in="col" result="comp">
                <feFuncA type="discrete" tableValues="0 0 0 0 0 0 0 .15 .4 .9 1 1"></feFuncA>
            </feComponentTransfer>
            <feComposite operator="in" in2="comp" result="RESULT" />

   <pattern id="cities" viewBox="0,0,10,10" width="100%" height="10%">
      <!-- <polygon points="0,0 2,5 0,10 5,8 10,10 8,5 10,0 5,2" /> -->
      <!-- <line x1="0" y1="0" x2="10" y2="10"/> -->
      <line x1="0" x2="100" y1="0" y2="100" stroke-width="2" stroke="black" fill="black"/>
    </pattern>


    </defs>
    <svg viewBox="0 0 512 512" clip-path="url(#box)">
        <rect width="100%" height="100%" fill="#d5d0ba" />

        <!-- <path fill="url(#skyGradient)" d="M0 0h512v512H0z" opacity=".7" /> -->



        <!-- <g fill="#fff">
            <circle r="3" cx="90" cy="404" opacity="0.3">
                <animate attributeName="r" values="0;5;3" dur="1s" />
            </circle>
            <circle r="1" cx="90" cy="404">
                <animate attributeName="r" values="1;0;2;1;1;1;1;1;1;1" dur="2s" start="2s" repeatCount="indefinite" />
            </circle>
            <circle r="1" cx="400" cy="400" fill="#fff" opacity="1">
                <animate attributeName="r" values="1;0;2;1;1;1;1;1;1;1" dur="4s" start="4s" repeatCount="indefinite" />
            </circle>
            <path d="M 185,351c 7,0 7,0 7,-7 c 0,7 0,7 7,7 c -7,0 -7,0 -7,7 c 0,-7 0,-7 -7,-7">
                <animate attributeName="r" values="1;0;1;1;1;1;1;1;1" dur="1s" start="1s" repeatCount="indefinite" />
            </path>
            <path d="M 155,46c 7,0 7,0 7,-7 c 0,7 0,7 7,7 c -7,0 -7,0 -7,7 c 0,-7 0,-7 -7,-7">
                <animate attributeName="r" values="1;0;1;1;1;1;1;1;1" dur="1s" start="1s" repeatCount="indefinite" />
            </path>
            <circle r="1" cx="190" cy="190" fill="#fff" opacity="1">
                <animate attributeName="r" values="1;0;2;1;1;1;1;1;1;1" dur="2s" start="2s" repeatCount="indefinite" />
            </circle>
            <path d="M 236,449c 7,0 7,0 7,-7 c 0,7 0,7 7,7 c -7,0 -7,0 -7,7 c 0,-7 0,-7 -7,-7">
                <animate attributeName="r" values="1;0;1;1;1;1;1;1;1" dur="4s" start="4s" repeatCount="indefinite" />
            </path>
            <circle r="1" cx="112" cy="112" fill="#fff" opacity="1">
                <animate attributeName="r" values="1;0;2;1;1;1;1;1;1;1" dur="2s" start="2s" repeatCount="indefinite" />
            </circle>
        </g>
        <g id="skymath"></g>
        <g id="deco"></g>
        <g id="silhouette"></g> -->

        <!-- <circle cx="256" cy="256" r="110" fill="none" opacity="1" stroke="white" stroke-dasharray="1 10 1"/>  -->

        <rect x="10" y='10' stroke="black" fill="none" stroke-width="2" width="492" height="492" />
        <rect x="20" y='20' stroke="black" fill="#426786" stroke-width="1" width="472" height="472" />
        <rect x="20" y='20' stroke="black" fill="url(#cities)" stroke-width="1" width="472" height="472" />
        <rect width="100%" height="100%" filter="url(#paper)" opacity="1" />
        <path fill="url(#cloudGradient)" filter="url(#clouds)" d="M-512-512h1536v1536h-2048z" />
        <circle cx="256" cy="256" r="200" stroke="black" fill="none" stroke-width="2" filter="url(#planet)" />
        <circle cx="256" cy="256" r="230" stroke="white" fill="none" stroke-width="1" />
        <circle cx="256" cy="256" r="170" stroke="white" fill="none" stroke-width="1" />
        <circle cx="256" cy="256" r="190" stroke="white" fill="none" stroke-width="1" />


        <!-- <line x1="256" y1="26" x2="256" y2="486" stroke="#69603f" stroke-width="3" /> -->
        <!-- <line x1="26" y1="256" x2="486" y2="256" stroke="#69603f" stroke-width="3" /> -->


        <circle cx="256" cy="256" r="100" stroke="black" fill="none" stroke-width="5" />
        <circle cx="256" cy="256" r="100" fill="hsl(120, 25%, 80%)" opacity="1" />
        <!-- <circle cx="256" cy="256" r="100" fill="#ECDFCC" mask="url(#planetmask)"  /> -->
        <!-- <circle cx="256" cy="256" r="100" fill="#697565" filter="url(#planet)" mask="url(#planetmask)" /> -->
        
        <circle cx="256" cy="256" r="100" stroke="black" fill="hsl(180, 25%, 80%)" stroke-width="12" filter="url(#planet)"
            mask="url(#planetmask)" />
        <!-- <circle cx="256" cy="256" r="100" fill="#181C14" filter="url(#planetset)" mask="url(#planetmask)" /> -->



    </svg>
</svg>